<mxfile host="Electron" modified="2023-10-19T09:27:47.045Z" agent="Mozilla/5.0 (Macintosh; Intel Mac OS X 10_15_7) AppleWebKit/537.36 (KHTML, like Gecko) draw.io/21.5.1 Chrome/112.0.5615.204 Electron/24.6.0 Safari/537.36" etag="DNt0qC-XW2_FKk44f9QN" version="21.5.1" type="device" pages="4">
  <diagram id="NBmDkxJyAAs_LilBsiCP" name="Channel">
    <mxGraphModel dx="984" dy="659" grid="1" gridSize="10" guides="1" tooltips="1" connect="1" arrows="1" fold="1" page="1" pageScale="1" pageWidth="3300" pageHeight="4681" background="none" math="0" shadow="0">
      <root>
        <mxCell id="0" />
        <mxCell id="1" parent="0" />
        <mxCell id="RS1NCdR5h_HzF46HQlsv-2" value="&lt;p style=&quot;margin: 4px 0px 0px; font-size: 10px;&quot;&gt;&lt;span style=&quot;font-size: 10px;&quot;&gt;Channel&lt;/span&gt;&lt;/p&gt;" style="verticalAlign=middle;align=center;overflow=fill;fontSize=10;fontFamily=Helvetica;html=1;fillColor=#d5e8d4;strokeColor=#82b366;fontStyle=0" parent="1" vertex="1">
          <mxGeometry x="610" y="100" width="60" height="20" as="geometry" />
        </mxCell>
        <mxCell id="RS1NCdR5h_HzF46HQlsv-7" style="edgeStyle=orthogonalEdgeStyle;rounded=0;orthogonalLoop=1;jettySize=auto;html=1;exitX=0.5;exitY=0;exitDx=0;exitDy=0;entryX=0.5;entryY=1;entryDx=0;entryDy=0;endArrow=block;endFill=0;strokeColor=#457B9D;dashed=1;" parent="1" source="RS1NCdR5h_HzF46HQlsv-3" target="RS1NCdR5h_HzF46HQlsv-2" edge="1">
          <mxGeometry relative="1" as="geometry" />
        </mxCell>
        <mxCell id="RS1NCdR5h_HzF46HQlsv-3" value="&lt;p style=&quot;margin: 4px 0px 0px; font-size: 10px;&quot;&gt;&lt;span style=&quot;font-size: 10px;&quot;&gt;AbstractChannel&lt;/span&gt;&lt;/p&gt;" style="verticalAlign=middle;align=center;overflow=fill;fontSize=10;fontFamily=Helvetica;html=1;fillColor=#dae8fc;strokeColor=#6c8ebf;fontStyle=0" parent="1" vertex="1">
          <mxGeometry x="590" y="150" width="100" height="20" as="geometry" />
        </mxCell>
        <mxCell id="RS1NCdR5h_HzF46HQlsv-9" style="edgeStyle=orthogonalEdgeStyle;shape=connector;rounded=0;orthogonalLoop=1;jettySize=auto;html=1;exitX=0.5;exitY=0;exitDx=0;exitDy=0;entryX=0.75;entryY=1;entryDx=0;entryDy=0;labelBackgroundColor=default;strokeColor=#457B9D;fontFamily=Helvetica;fontSize=11;fontColor=default;endArrow=block;endFill=0;" parent="1" source="RS1NCdR5h_HzF46HQlsv-4" target="RS1NCdR5h_HzF46HQlsv-3" edge="1">
          <mxGeometry relative="1" as="geometry">
            <Array as="points">
              <mxPoint x="780" y="190" />
              <mxPoint x="665" y="190" />
            </Array>
          </mxGeometry>
        </mxCell>
        <mxCell id="RS1NCdR5h_HzF46HQlsv-10" style="edgeStyle=orthogonalEdgeStyle;shape=connector;rounded=0;orthogonalLoop=1;jettySize=auto;html=1;exitX=0.75;exitY=0;exitDx=0;exitDy=0;entryX=0.5;entryY=1;entryDx=0;entryDy=0;labelBackgroundColor=default;strokeColor=#457B9D;fontFamily=Helvetica;fontSize=11;fontColor=default;endArrow=open;endFill=0;" parent="1" source="RS1NCdR5h_HzF46HQlsv-4" target="RS1NCdR5h_HzF46HQlsv-6" edge="1">
          <mxGeometry relative="1" as="geometry">
            <Array as="points">
              <mxPoint x="805" y="190" />
              <mxPoint x="805" y="190" />
            </Array>
          </mxGeometry>
        </mxCell>
        <mxCell id="RS1NCdR5h_HzF46HQlsv-4" value="&lt;p style=&quot;margin: 4px 0px 0px; font-size: 10px;&quot;&gt;&lt;span style=&quot;font-size: 10px;&quot;&gt;AbstractNioChannel&lt;/span&gt;&lt;/p&gt;" style="verticalAlign=middle;align=center;overflow=fill;fontSize=10;fontFamily=Helvetica;html=1;fillColor=#dae8fc;strokeColor=#6c8ebf;fontStyle=0" parent="1" vertex="1">
          <mxGeometry x="730" y="200" width="100" height="20" as="geometry" />
        </mxCell>
        <mxCell id="RS1NCdR5h_HzF46HQlsv-8" style="edgeStyle=orthogonalEdgeStyle;shape=connector;rounded=0;orthogonalLoop=1;jettySize=auto;html=1;exitX=0.5;exitY=0;exitDx=0;exitDy=0;entryX=0.25;entryY=1;entryDx=0;entryDy=0;labelBackgroundColor=default;strokeColor=#457B9D;fontFamily=Helvetica;fontSize=11;fontColor=default;endArrow=block;endFill=0;" parent="1" source="RS1NCdR5h_HzF46HQlsv-5" target="RS1NCdR5h_HzF46HQlsv-3" edge="1">
          <mxGeometry relative="1" as="geometry">
            <Array as="points">
              <mxPoint x="480" y="190" />
              <mxPoint x="615" y="190" />
            </Array>
          </mxGeometry>
        </mxCell>
        <mxCell id="RS1NCdR5h_HzF46HQlsv-5" value="&lt;p style=&quot;margin: 4px 0px 0px; font-size: 10px;&quot;&gt;&lt;span style=&quot;font-size: 10px;&quot;&gt;AbstractOioChannel&lt;/span&gt;&lt;/p&gt;" style="verticalAlign=middle;align=center;overflow=fill;fontSize=10;fontFamily=Helvetica;html=1;fillColor=#dae8fc;strokeColor=#6c8ebf;fontStyle=0" parent="1" vertex="1">
          <mxGeometry x="430" y="200" width="100" height="20" as="geometry" />
        </mxCell>
        <mxCell id="RS1NCdR5h_HzF46HQlsv-6" value="&lt;p style=&quot;margin: 4px 0px 0px; font-size: 10px;&quot;&gt;&lt;span style=&quot;font-size: 10px;&quot;&gt;SelectableChannel&lt;/span&gt;&lt;/p&gt;" style="verticalAlign=middle;align=center;overflow=fill;fontSize=10;fontFamily=Helvetica;html=1;fillColor=#dae8fc;strokeColor=#6c8ebf;fontStyle=0" parent="1" vertex="1">
          <mxGeometry x="750" y="150" width="110" height="20" as="geometry" />
        </mxCell>
        <mxCell id="RS1NCdR5h_HzF46HQlsv-16" style="edgeStyle=orthogonalEdgeStyle;shape=connector;rounded=0;orthogonalLoop=1;jettySize=auto;html=1;exitX=0.5;exitY=0;exitDx=0;exitDy=0;entryX=0.75;entryY=1;entryDx=0;entryDy=0;labelBackgroundColor=default;strokeColor=#457B9D;fontFamily=Helvetica;fontSize=11;fontColor=default;endArrow=block;endFill=0;" parent="1" source="RS1NCdR5h_HzF46HQlsv-14" target="RS1NCdR5h_HzF46HQlsv-4" edge="1">
          <mxGeometry relative="1" as="geometry">
            <Array as="points">
              <mxPoint x="860" y="240" />
              <mxPoint x="805" y="240" />
            </Array>
          </mxGeometry>
        </mxCell>
        <mxCell id="RS1NCdR5h_HzF46HQlsv-14" value="&lt;p style=&quot;margin: 4px 0px 0px; font-size: 10px;&quot;&gt;&lt;span style=&quot;font-size: 10px;&quot;&gt;AbstractNioMessageChannel&lt;/span&gt;&lt;/p&gt;" style="verticalAlign=middle;align=center;overflow=fill;fontSize=10;fontFamily=Helvetica;html=1;fillColor=#dae8fc;strokeColor=#6c8ebf;fontStyle=0" parent="1" vertex="1">
          <mxGeometry x="790" y="250" width="140" height="20" as="geometry" />
        </mxCell>
        <mxCell id="RS1NCdR5h_HzF46HQlsv-17" style="edgeStyle=orthogonalEdgeStyle;shape=connector;rounded=0;orthogonalLoop=1;jettySize=auto;html=1;exitX=0.5;exitY=0;exitDx=0;exitDy=0;entryX=0.25;entryY=1;entryDx=0;entryDy=0;labelBackgroundColor=default;strokeColor=#457B9D;fontFamily=Helvetica;fontSize=11;fontColor=default;endArrow=block;endFill=0;" parent="1" source="RS1NCdR5h_HzF46HQlsv-15" target="RS1NCdR5h_HzF46HQlsv-4" edge="1">
          <mxGeometry relative="1" as="geometry">
            <Array as="points">
              <mxPoint x="710" y="240" />
              <mxPoint x="755" y="240" />
            </Array>
          </mxGeometry>
        </mxCell>
        <mxCell id="RS1NCdR5h_HzF46HQlsv-15" value="&lt;p style=&quot;margin: 4px 0px 0px; font-size: 10px;&quot;&gt;&lt;span style=&quot;font-size: 10px;&quot;&gt;AbstractNioByteChannel&lt;/span&gt;&lt;/p&gt;" style="verticalAlign=middle;align=center;overflow=fill;fontSize=10;fontFamily=Helvetica;html=1;fillColor=#dae8fc;strokeColor=#6c8ebf;fontStyle=0" parent="1" vertex="1">
          <mxGeometry x="650" y="250" width="120" height="20" as="geometry" />
        </mxCell>
        <mxCell id="RS1NCdR5h_HzF46HQlsv-21" style="edgeStyle=orthogonalEdgeStyle;shape=connector;rounded=0;orthogonalLoop=1;jettySize=auto;html=1;exitX=0.5;exitY=0;exitDx=0;exitDy=0;entryX=0.75;entryY=1;entryDx=0;entryDy=0;labelBackgroundColor=default;strokeColor=#457B9D;fontFamily=Helvetica;fontSize=11;fontColor=default;endArrow=block;endFill=0;" parent="1" source="RS1NCdR5h_HzF46HQlsv-18" target="RS1NCdR5h_HzF46HQlsv-5" edge="1">
          <mxGeometry relative="1" as="geometry">
            <Array as="points">
              <mxPoint x="560" y="240" />
              <mxPoint x="505" y="240" />
            </Array>
          </mxGeometry>
        </mxCell>
        <mxCell id="RS1NCdR5h_HzF46HQlsv-18" value="&lt;p style=&quot;margin: 4px 0px 0px; font-size: 10px;&quot;&gt;&lt;span style=&quot;font-size: 10px;&quot;&gt;AbstractOioMessageChannel&lt;/span&gt;&lt;/p&gt;" style="verticalAlign=middle;align=center;overflow=fill;fontSize=10;fontFamily=Helvetica;html=1;fillColor=#dae8fc;strokeColor=#6c8ebf;fontStyle=0" parent="1" vertex="1">
          <mxGeometry x="490" y="250" width="140" height="20" as="geometry" />
        </mxCell>
        <mxCell id="RS1NCdR5h_HzF46HQlsv-20" style="edgeStyle=orthogonalEdgeStyle;shape=connector;rounded=0;orthogonalLoop=1;jettySize=auto;html=1;exitX=0.5;exitY=0;exitDx=0;exitDy=0;entryX=0.25;entryY=1;entryDx=0;entryDy=0;labelBackgroundColor=default;strokeColor=#457B9D;fontFamily=Helvetica;fontSize=11;fontColor=default;endArrow=block;endFill=0;" parent="1" source="RS1NCdR5h_HzF46HQlsv-19" target="RS1NCdR5h_HzF46HQlsv-5" edge="1">
          <mxGeometry relative="1" as="geometry">
            <Array as="points">
              <mxPoint x="410" y="240" />
              <mxPoint x="455" y="240" />
            </Array>
          </mxGeometry>
        </mxCell>
        <mxCell id="RS1NCdR5h_HzF46HQlsv-19" value="&lt;p style=&quot;margin: 4px 0px 0px; font-size: 10px;&quot;&gt;&lt;span style=&quot;font-size: 10px;&quot;&gt;AbstractOioByteChannel&lt;/span&gt;&lt;/p&gt;" style="verticalAlign=middle;align=center;overflow=fill;fontSize=10;fontFamily=Helvetica;html=1;fillColor=#dae8fc;strokeColor=#6c8ebf;fontStyle=0" parent="1" vertex="1">
          <mxGeometry x="350" y="250" width="120" height="20" as="geometry" />
        </mxCell>
        <mxCell id="RS1NCdR5h_HzF46HQlsv-23" style="edgeStyle=orthogonalEdgeStyle;shape=connector;rounded=0;orthogonalLoop=1;jettySize=auto;html=1;exitX=0.5;exitY=0;exitDx=0;exitDy=0;entryX=0.5;entryY=1;entryDx=0;entryDy=0;labelBackgroundColor=default;strokeColor=#457B9D;fontFamily=Helvetica;fontSize=11;fontColor=default;endArrow=block;endFill=0;" parent="1" source="RS1NCdR5h_HzF46HQlsv-22" target="RS1NCdR5h_HzF46HQlsv-19" edge="1">
          <mxGeometry relative="1" as="geometry" />
        </mxCell>
        <mxCell id="RS1NCdR5h_HzF46HQlsv-22" value="&lt;p style=&quot;margin: 4px 0px 0px; font-size: 10px;&quot;&gt;&lt;span style=&quot;font-size: 10px;&quot;&gt;OioByteStreamChannel&lt;/span&gt;&lt;/p&gt;" style="verticalAlign=middle;align=center;overflow=fill;fontSize=10;fontFamily=Helvetica;html=1;fillColor=#dae8fc;strokeColor=#6c8ebf;fontStyle=0" parent="1" vertex="1">
          <mxGeometry x="350" y="300" width="120" height="20" as="geometry" />
        </mxCell>
        <mxCell id="RS1NCdR5h_HzF46HQlsv-25" style="edgeStyle=orthogonalEdgeStyle;shape=connector;rounded=0;orthogonalLoop=1;jettySize=auto;html=1;exitX=0.5;exitY=0;exitDx=0;exitDy=0;entryX=0.5;entryY=1;entryDx=0;entryDy=0;labelBackgroundColor=default;strokeColor=#457B9D;fontFamily=Helvetica;fontSize=11;fontColor=default;endArrow=block;endFill=0;" parent="1" source="RS1NCdR5h_HzF46HQlsv-24" target="RS1NCdR5h_HzF46HQlsv-22" edge="1">
          <mxGeometry relative="1" as="geometry" />
        </mxCell>
        <mxCell id="RS1NCdR5h_HzF46HQlsv-43" style="edgeStyle=orthogonalEdgeStyle;shape=connector;rounded=0;orthogonalLoop=1;jettySize=auto;html=1;exitX=0.25;exitY=0;exitDx=0;exitDy=0;entryX=0.25;entryY=1;entryDx=0;entryDy=0;labelBackgroundColor=default;strokeColor=#457B9D;fontFamily=Helvetica;fontSize=11;fontColor=default;endArrow=block;endFill=0;dashed=1;" parent="1" source="RS1NCdR5h_HzF46HQlsv-24" target="RS1NCdR5h_HzF46HQlsv-36" edge="1">
          <mxGeometry relative="1" as="geometry">
            <Array as="points">
              <mxPoint x="385" y="340" />
              <mxPoint x="310" y="340" />
            </Array>
          </mxGeometry>
        </mxCell>
        <mxCell id="RS1NCdR5h_HzF46HQlsv-24" value="&lt;p style=&quot;margin: 4px 0px 0px; font-size: 10px;&quot;&gt;&lt;span style=&quot;font-size: 10px;&quot;&gt;OioSocketChannel&lt;/span&gt;&lt;/p&gt;" style="verticalAlign=middle;align=center;overflow=fill;fontSize=10;fontFamily=Helvetica;html=1;fillColor=#dae8fc;strokeColor=#6c8ebf;fontStyle=0" parent="1" vertex="1">
          <mxGeometry x="360" y="350" width="100" height="20" as="geometry" />
        </mxCell>
        <mxCell id="RS1NCdR5h_HzF46HQlsv-29" style="edgeStyle=orthogonalEdgeStyle;shape=connector;rounded=0;orthogonalLoop=1;jettySize=auto;html=1;exitX=0.5;exitY=0;exitDx=0;exitDy=0;entryX=0.5;entryY=1;entryDx=0;entryDy=0;labelBackgroundColor=default;strokeColor=#457B9D;fontFamily=Helvetica;fontSize=11;fontColor=default;endArrow=block;endFill=0;" parent="1" source="RS1NCdR5h_HzF46HQlsv-26" target="RS1NCdR5h_HzF46HQlsv-15" edge="1">
          <mxGeometry relative="1" as="geometry" />
        </mxCell>
        <mxCell id="RS1NCdR5h_HzF46HQlsv-44" style="edgeStyle=orthogonalEdgeStyle;shape=connector;rounded=0;orthogonalLoop=1;jettySize=auto;html=1;exitX=0.25;exitY=0;exitDx=0;exitDy=0;entryX=0.5;entryY=1;entryDx=0;entryDy=0;labelBackgroundColor=default;strokeColor=#457B9D;fontFamily=Helvetica;fontSize=11;fontColor=default;endArrow=block;endFill=0;dashed=1;" parent="1" source="RS1NCdR5h_HzF46HQlsv-26" target="RS1NCdR5h_HzF46HQlsv-36" edge="1">
          <mxGeometry relative="1" as="geometry">
            <Array as="points">
              <mxPoint x="685" y="290" />
              <mxPoint x="330" y="290" />
            </Array>
          </mxGeometry>
        </mxCell>
        <mxCell id="RS1NCdR5h_HzF46HQlsv-26" value="&lt;p style=&quot;margin: 4px 0px 0px; font-size: 10px;&quot;&gt;&lt;span style=&quot;font-size: 10px;&quot;&gt;NioSocketChannel&lt;/span&gt;&lt;/p&gt;" style="verticalAlign=middle;align=center;overflow=fill;fontSize=10;fontFamily=Helvetica;html=1;fillColor=#dae8fc;strokeColor=#6c8ebf;fontStyle=0" parent="1" vertex="1">
          <mxGeometry x="660" y="350" width="100" height="20" as="geometry" />
        </mxCell>
        <mxCell id="RS1NCdR5h_HzF46HQlsv-28" style="edgeStyle=orthogonalEdgeStyle;shape=connector;rounded=0;orthogonalLoop=1;jettySize=auto;html=1;exitX=0.5;exitY=0;exitDx=0;exitDy=0;entryX=0.5;entryY=1;entryDx=0;entryDy=0;labelBackgroundColor=default;strokeColor=#457B9D;fontFamily=Helvetica;fontSize=11;fontColor=default;endArrow=block;endFill=0;" parent="1" source="RS1NCdR5h_HzF46HQlsv-27" target="RS1NCdR5h_HzF46HQlsv-14" edge="1">
          <mxGeometry relative="1" as="geometry" />
        </mxCell>
        <mxCell id="RS1NCdR5h_HzF46HQlsv-41" style="edgeStyle=orthogonalEdgeStyle;shape=connector;rounded=0;orthogonalLoop=1;jettySize=auto;html=1;exitX=0.75;exitY=0;exitDx=0;exitDy=0;entryX=0.75;entryY=1;entryDx=0;entryDy=0;labelBackgroundColor=default;strokeColor=#457B9D;fontFamily=Helvetica;fontSize=11;fontColor=default;endArrow=block;endFill=0;dashed=1;" parent="1" source="RS1NCdR5h_HzF46HQlsv-27" target="RS1NCdR5h_HzF46HQlsv-34" edge="1">
          <mxGeometry relative="1" as="geometry">
            <Array as="points">
              <mxPoint x="893" y="330" />
              <mxPoint x="973" y="330" />
            </Array>
          </mxGeometry>
        </mxCell>
        <mxCell id="RS1NCdR5h_HzF46HQlsv-27" value="&lt;p style=&quot;margin: 4px 0px 0px; font-size: 10px;&quot;&gt;&lt;span style=&quot;font-size: 10px;&quot;&gt;NioSocketServerChannel&lt;/span&gt;&lt;/p&gt;" style="verticalAlign=middle;align=center;overflow=fill;fontSize=10;fontFamily=Helvetica;html=1;fillColor=#dae8fc;strokeColor=#6c8ebf;fontStyle=0" parent="1" vertex="1">
          <mxGeometry x="795" y="350" width="130" height="20" as="geometry" />
        </mxCell>
        <mxCell id="RS1NCdR5h_HzF46HQlsv-31" style="edgeStyle=orthogonalEdgeStyle;shape=connector;rounded=0;orthogonalLoop=1;jettySize=auto;html=1;exitX=0.5;exitY=0;exitDx=0;exitDy=0;entryX=0.5;entryY=1;entryDx=0;entryDy=0;labelBackgroundColor=default;strokeColor=#457B9D;fontFamily=Helvetica;fontSize=11;fontColor=default;endArrow=block;endFill=0;" parent="1" source="RS1NCdR5h_HzF46HQlsv-30" target="RS1NCdR5h_HzF46HQlsv-18" edge="1">
          <mxGeometry relative="1" as="geometry" />
        </mxCell>
        <mxCell id="RS1NCdR5h_HzF46HQlsv-42" style="edgeStyle=orthogonalEdgeStyle;shape=connector;rounded=0;orthogonalLoop=1;jettySize=auto;html=1;exitX=0.75;exitY=0;exitDx=0;exitDy=0;entryX=0.5;entryY=1;entryDx=0;entryDy=0;labelBackgroundColor=default;strokeColor=#457B9D;fontFamily=Helvetica;fontSize=11;fontColor=default;endArrow=block;endFill=0;dashed=1;" parent="1" source="RS1NCdR5h_HzF46HQlsv-30" target="RS1NCdR5h_HzF46HQlsv-34" edge="1">
          <mxGeometry relative="1" as="geometry">
            <Array as="points">
              <mxPoint x="593" y="310" />
              <mxPoint x="945" y="310" />
            </Array>
          </mxGeometry>
        </mxCell>
        <mxCell id="RS1NCdR5h_HzF46HQlsv-30" value="&lt;p style=&quot;margin: 4px 0px 0px; font-size: 10px;&quot;&gt;&lt;span style=&quot;font-size: 10px;&quot;&gt;OioServerSocketChannel&lt;/span&gt;&lt;/p&gt;" style="verticalAlign=middle;align=center;overflow=fill;fontSize=10;fontFamily=Helvetica;html=1;fillColor=#dae8fc;strokeColor=#6c8ebf;fontStyle=0" parent="1" vertex="1">
          <mxGeometry x="495" y="350" width="130" height="20" as="geometry" />
        </mxCell>
        <mxCell id="RS1NCdR5h_HzF46HQlsv-38" style="edgeStyle=orthogonalEdgeStyle;shape=connector;rounded=0;orthogonalLoop=1;jettySize=auto;html=1;exitX=0.5;exitY=0;exitDx=0;exitDy=0;entryX=0.75;entryY=1;entryDx=0;entryDy=0;labelBackgroundColor=default;strokeColor=#457B9D;fontFamily=Helvetica;fontSize=11;fontColor=default;endArrow=block;endFill=0;" parent="1" source="RS1NCdR5h_HzF46HQlsv-33" target="RS1NCdR5h_HzF46HQlsv-2" edge="1">
          <mxGeometry relative="1" as="geometry">
            <Array as="points">
              <mxPoint x="945" y="140" />
              <mxPoint x="655" y="140" />
            </Array>
          </mxGeometry>
        </mxCell>
        <mxCell id="RS1NCdR5h_HzF46HQlsv-33" value="&lt;p style=&quot;margin: 4px 0px 0px; font-size: 10px;&quot;&gt;&lt;span style=&quot;font-size: 10px;&quot;&gt;ServerChannel&lt;/span&gt;&lt;/p&gt;" style="verticalAlign=middle;align=center;overflow=fill;fontSize=10;fontFamily=Helvetica;html=1;fillColor=#d5e8d4;strokeColor=#82b366;fontStyle=0" parent="1" vertex="1">
          <mxGeometry x="905" y="150" width="80" height="20" as="geometry" />
        </mxCell>
        <mxCell id="RS1NCdR5h_HzF46HQlsv-39" style="edgeStyle=orthogonalEdgeStyle;shape=connector;rounded=0;orthogonalLoop=1;jettySize=auto;html=1;exitX=0.5;exitY=0;exitDx=0;exitDy=0;entryX=0.5;entryY=1;entryDx=0;entryDy=0;labelBackgroundColor=default;strokeColor=#457B9D;fontFamily=Helvetica;fontSize=11;fontColor=default;endArrow=block;endFill=0;" parent="1" source="RS1NCdR5h_HzF46HQlsv-34" target="RS1NCdR5h_HzF46HQlsv-33" edge="1">
          <mxGeometry relative="1" as="geometry" />
        </mxCell>
        <mxCell id="RS1NCdR5h_HzF46HQlsv-34" value="&lt;p style=&quot;margin: 4px 0px 0px; font-size: 10px;&quot;&gt;&lt;span style=&quot;font-size: 10px;&quot;&gt;ServerSocketChannel&lt;/span&gt;&lt;/p&gt;" style="verticalAlign=middle;align=center;overflow=fill;fontSize=10;fontFamily=Helvetica;html=1;fillColor=#d5e8d4;strokeColor=#82b366;fontStyle=0" parent="1" vertex="1">
          <mxGeometry x="890" y="190" width="110" height="20" as="geometry" />
        </mxCell>
        <mxCell id="RS1NCdR5h_HzF46HQlsv-37" style="edgeStyle=orthogonalEdgeStyle;shape=connector;rounded=0;orthogonalLoop=1;jettySize=auto;html=1;exitX=0.5;exitY=0;exitDx=0;exitDy=0;entryX=0.25;entryY=1;entryDx=0;entryDy=0;labelBackgroundColor=default;strokeColor=#457B9D;fontFamily=Helvetica;fontSize=11;fontColor=default;endArrow=block;endFill=0;" parent="1" source="RS1NCdR5h_HzF46HQlsv-35" target="RS1NCdR5h_HzF46HQlsv-2" edge="1">
          <mxGeometry relative="1" as="geometry">
            <Array as="points">
              <mxPoint x="320" y="140" />
              <mxPoint x="625" y="140" />
            </Array>
          </mxGeometry>
        </mxCell>
        <mxCell id="RS1NCdR5h_HzF46HQlsv-35" value="&lt;p style=&quot;margin: 4px 0px 0px; font-size: 10px;&quot;&gt;&lt;span style=&quot;font-size: 10px;&quot;&gt;DuplexChannel&lt;/span&gt;&lt;/p&gt;" style="verticalAlign=middle;align=center;overflow=fill;fontSize=10;fontFamily=Helvetica;html=1;fillColor=#d5e8d4;strokeColor=#82b366;fontStyle=0" parent="1" vertex="1">
          <mxGeometry x="290" y="150" width="80" height="20" as="geometry" />
        </mxCell>
        <mxCell id="RS1NCdR5h_HzF46HQlsv-40" style="edgeStyle=orthogonalEdgeStyle;shape=connector;rounded=0;orthogonalLoop=1;jettySize=auto;html=1;exitX=0.5;exitY=0;exitDx=0;exitDy=0;entryX=0.5;entryY=1;entryDx=0;entryDy=0;labelBackgroundColor=default;strokeColor=#457B9D;fontFamily=Helvetica;fontSize=11;fontColor=default;endArrow=block;endFill=0;" parent="1" source="RS1NCdR5h_HzF46HQlsv-36" target="RS1NCdR5h_HzF46HQlsv-35" edge="1">
          <mxGeometry relative="1" as="geometry" />
        </mxCell>
        <mxCell id="RS1NCdR5h_HzF46HQlsv-36" value="&lt;p style=&quot;margin: 4px 0px 0px; font-size: 10px;&quot;&gt;&lt;span style=&quot;font-size: 10px;&quot;&gt;SocketChannel&lt;/span&gt;&lt;/p&gt;" style="verticalAlign=middle;align=center;overflow=fill;fontSize=10;fontFamily=Helvetica;html=1;fillColor=#d5e8d4;strokeColor=#82b366;fontStyle=0" parent="1" vertex="1">
          <mxGeometry x="290" y="200" width="80" height="20" as="geometry" />
        </mxCell>
        <mxCell id="RS1NCdR5h_HzF46HQlsv-45" value="&lt;p style=&quot;margin: 4px 0px 0px; font-size: 10px;&quot;&gt;&lt;span style=&quot;font-size: 10px;&quot;&gt;ChannelHandler&lt;/span&gt;&lt;/p&gt;" style="verticalAlign=middle;align=center;overflow=fill;fontSize=10;fontFamily=Helvetica;html=1;fillColor=#d5e8d4;strokeColor=#82b366;fontStyle=0" parent="1" vertex="1">
          <mxGeometry x="600" y="500" width="80" height="20" as="geometry" />
        </mxCell>
        <mxCell id="RS1NCdR5h_HzF46HQlsv-52" style="edgeStyle=orthogonalEdgeStyle;shape=connector;rounded=0;orthogonalLoop=1;jettySize=auto;html=1;exitX=0.5;exitY=0;exitDx=0;exitDy=0;entryX=0.5;entryY=1;entryDx=0;entryDy=0;labelBackgroundColor=default;strokeColor=#457B9D;fontFamily=Helvetica;fontSize=11;fontColor=default;endArrow=block;endFill=0;dashed=1;" parent="1" source="RS1NCdR5h_HzF46HQlsv-46" target="RS1NCdR5h_HzF46HQlsv-45" edge="1">
          <mxGeometry relative="1" as="geometry" />
        </mxCell>
        <mxCell id="RS1NCdR5h_HzF46HQlsv-46" value="&lt;p style=&quot;margin: 4px 0px 0px; font-size: 10px;&quot;&gt;&lt;span style=&quot;font-size: 10px;&quot;&gt;ChannelHandlerAdapter&lt;/span&gt;&lt;/p&gt;" style="verticalAlign=middle;align=center;overflow=fill;fontSize=10;fontFamily=Helvetica;html=1;fillColor=#dae8fc;strokeColor=#6c8ebf;fontStyle=0" parent="1" vertex="1">
          <mxGeometry x="580" y="550" width="120" height="20" as="geometry" />
        </mxCell>
        <mxCell id="RS1NCdR5h_HzF46HQlsv-53" style="edgeStyle=orthogonalEdgeStyle;shape=connector;rounded=0;orthogonalLoop=1;jettySize=auto;html=1;exitX=0.5;exitY=0;exitDx=0;exitDy=0;entryX=0.25;entryY=1;entryDx=0;entryDy=0;labelBackgroundColor=default;strokeColor=#457B9D;fontFamily=Helvetica;fontSize=11;fontColor=default;endArrow=block;endFill=0;" parent="1" source="RS1NCdR5h_HzF46HQlsv-47" target="RS1NCdR5h_HzF46HQlsv-45" edge="1">
          <mxGeometry relative="1" as="geometry">
            <Array as="points">
              <mxPoint x="500" y="540" />
              <mxPoint x="620" y="540" />
            </Array>
          </mxGeometry>
        </mxCell>
        <mxCell id="RS1NCdR5h_HzF46HQlsv-47" value="&lt;p style=&quot;margin: 4px 0px 0px; font-size: 10px;&quot;&gt;ChannelInboundHandler&lt;br&gt;&lt;/p&gt;" style="verticalAlign=middle;align=center;overflow=fill;fontSize=10;fontFamily=Helvetica;html=1;fillColor=#d5e8d4;strokeColor=#82b366;fontStyle=0" parent="1" vertex="1">
          <mxGeometry x="440" y="550" width="120" height="20" as="geometry" />
        </mxCell>
        <mxCell id="RS1NCdR5h_HzF46HQlsv-54" style="edgeStyle=orthogonalEdgeStyle;shape=connector;rounded=0;orthogonalLoop=1;jettySize=auto;html=1;exitX=0.5;exitY=0;exitDx=0;exitDy=0;entryX=0.75;entryY=1;entryDx=0;entryDy=0;labelBackgroundColor=default;strokeColor=#457B9D;fontFamily=Helvetica;fontSize=11;fontColor=default;endArrow=block;endFill=0;" parent="1" source="RS1NCdR5h_HzF46HQlsv-48" target="RS1NCdR5h_HzF46HQlsv-45" edge="1">
          <mxGeometry relative="1" as="geometry">
            <Array as="points">
              <mxPoint x="780" y="540" />
              <mxPoint x="660" y="540" />
            </Array>
          </mxGeometry>
        </mxCell>
        <mxCell id="RS1NCdR5h_HzF46HQlsv-48" value="&lt;p style=&quot;margin: 4px 0px 0px; font-size: 10px;&quot;&gt;ChannelOutboundHandler&lt;br&gt;&lt;/p&gt;" style="verticalAlign=middle;align=center;overflow=fill;fontSize=10;fontFamily=Helvetica;html=1;fillColor=#d5e8d4;strokeColor=#82b366;fontStyle=0" parent="1" vertex="1">
          <mxGeometry x="720" y="550" width="120" height="20" as="geometry" />
        </mxCell>
        <mxCell id="RS1NCdR5h_HzF46HQlsv-56" style="edgeStyle=orthogonalEdgeStyle;shape=connector;rounded=0;orthogonalLoop=1;jettySize=auto;html=1;exitX=0.5;exitY=0;exitDx=0;exitDy=0;entryX=0.5;entryY=1;entryDx=0;entryDy=0;labelBackgroundColor=default;strokeColor=#457B9D;fontFamily=Helvetica;fontSize=11;fontColor=default;endArrow=block;endFill=0;dashed=1;" parent="1" source="RS1NCdR5h_HzF46HQlsv-49" target="RS1NCdR5h_HzF46HQlsv-47" edge="1">
          <mxGeometry relative="1" as="geometry" />
        </mxCell>
        <mxCell id="RS1NCdR5h_HzF46HQlsv-57" style="edgeStyle=orthogonalEdgeStyle;shape=connector;rounded=0;orthogonalLoop=1;jettySize=auto;html=1;exitX=0.75;exitY=0;exitDx=0;exitDy=0;entryX=0.25;entryY=1;entryDx=0;entryDy=0;labelBackgroundColor=default;strokeColor=#457B9D;fontFamily=Helvetica;fontSize=11;fontColor=default;endArrow=block;endFill=0;" parent="1" source="RS1NCdR5h_HzF46HQlsv-49" target="RS1NCdR5h_HzF46HQlsv-46" edge="1">
          <mxGeometry relative="1" as="geometry">
            <Array as="points">
              <mxPoint x="540" y="590" />
              <mxPoint x="610" y="590" />
            </Array>
          </mxGeometry>
        </mxCell>
        <mxCell id="RS1NCdR5h_HzF46HQlsv-49" value="&lt;p style=&quot;margin: 4px 0px 0px; font-size: 10px;&quot;&gt;ChannelInboundHandlerAdapter&lt;br&gt;&lt;/p&gt;" style="verticalAlign=middle;align=center;overflow=fill;fontSize=10;fontFamily=Helvetica;html=1;fillColor=#dae8fc;strokeColor=#6c8ebf;fontStyle=0" parent="1" vertex="1">
          <mxGeometry x="420" y="600" width="160" height="20" as="geometry" />
        </mxCell>
        <mxCell id="RS1NCdR5h_HzF46HQlsv-55" style="edgeStyle=orthogonalEdgeStyle;shape=connector;rounded=0;orthogonalLoop=1;jettySize=auto;html=1;exitX=0.5;exitY=0;exitDx=0;exitDy=0;entryX=0.5;entryY=1;entryDx=0;entryDy=0;labelBackgroundColor=default;strokeColor=#457B9D;fontFamily=Helvetica;fontSize=11;fontColor=default;endArrow=block;endFill=0;dashed=1;" parent="1" source="RS1NCdR5h_HzF46HQlsv-50" target="RS1NCdR5h_HzF46HQlsv-48" edge="1">
          <mxGeometry relative="1" as="geometry" />
        </mxCell>
        <mxCell id="RS1NCdR5h_HzF46HQlsv-58" style="edgeStyle=orthogonalEdgeStyle;shape=connector;rounded=0;orthogonalLoop=1;jettySize=auto;html=1;exitX=0.25;exitY=0;exitDx=0;exitDy=0;entryX=0.75;entryY=1;entryDx=0;entryDy=0;labelBackgroundColor=default;strokeColor=#457B9D;fontFamily=Helvetica;fontSize=11;fontColor=default;endArrow=block;endFill=0;" parent="1" source="RS1NCdR5h_HzF46HQlsv-50" target="RS1NCdR5h_HzF46HQlsv-46" edge="1">
          <mxGeometry relative="1" as="geometry">
            <Array as="points">
              <mxPoint x="740" y="590" />
              <mxPoint x="670" y="590" />
            </Array>
          </mxGeometry>
        </mxCell>
        <mxCell id="RS1NCdR5h_HzF46HQlsv-50" value="&lt;p style=&quot;margin: 4px 0px 0px; font-size: 10px;&quot;&gt;ChannelOutboundHandlerAdapter&lt;br&gt;&lt;/p&gt;" style="verticalAlign=middle;align=center;overflow=fill;fontSize=10;fontFamily=Helvetica;html=1;fillColor=#dae8fc;strokeColor=#6c8ebf;fontStyle=0" parent="1" vertex="1">
          <mxGeometry x="700" y="600" width="160" height="20" as="geometry" />
        </mxCell>
        <mxCell id="RS1NCdR5h_HzF46HQlsv-59" style="edgeStyle=orthogonalEdgeStyle;shape=connector;rounded=0;orthogonalLoop=1;jettySize=auto;html=1;exitX=0.5;exitY=0;exitDx=0;exitDy=0;entryX=0.5;entryY=1;entryDx=0;entryDy=0;labelBackgroundColor=default;strokeColor=#457B9D;fontFamily=Helvetica;fontSize=11;fontColor=default;endArrow=block;endFill=0;" parent="1" source="RS1NCdR5h_HzF46HQlsv-51" target="RS1NCdR5h_HzF46HQlsv-49" edge="1">
          <mxGeometry relative="1" as="geometry" />
        </mxCell>
        <mxCell id="RS1NCdR5h_HzF46HQlsv-51" value="&lt;p style=&quot;margin: 4px 0px 0px; font-size: 10px;&quot;&gt;ChannelInitializer&lt;br&gt;&lt;/p&gt;" style="verticalAlign=middle;align=center;overflow=fill;fontSize=10;fontFamily=Helvetica;html=1;fillColor=#dae8fc;strokeColor=#6c8ebf;fontStyle=0" parent="1" vertex="1">
          <mxGeometry x="450" y="650" width="100" height="20" as="geometry" />
        </mxCell>
      </root>
    </mxGraphModel>
  </diagram>
  <diagram id="k0OEetu-kXqUdXd9BlFh" name="EventLoopGroup">
    <mxGraphModel dx="984" dy="659" grid="1" gridSize="10" guides="1" tooltips="1" connect="1" arrows="1" fold="1" page="1" pageScale="1" pageWidth="3300" pageHeight="4681" math="0" shadow="0">
      <root>
        <mxCell id="0" />
        <mxCell id="1" parent="0" />
        <mxCell id="5vC_YPOHCPxvv5NFeycX-25" value="" style="rounded=1;whiteSpace=wrap;html=1;fillColor=#f5f5f5;strokeColor=#666666;strokeWidth=0.5;fontColor=#333333;" vertex="1" parent="1">
          <mxGeometry x="1050" y="880" width="110" height="130" as="geometry" />
        </mxCell>
        <mxCell id="G1SJDguI5GNS14YKXZPK-1" value="&lt;p style=&quot;margin: 4px 0px 0px; font-size: 10px;&quot;&gt;&lt;span style=&quot;font-size: 10px;&quot;&gt;Executor&lt;/span&gt;&lt;/p&gt;" style="verticalAlign=middle;align=center;overflow=fill;fontSize=10;fontFamily=Helvetica;html=1;fillColor=#d5e8d4;strokeColor=#82b366;fontStyle=0" parent="1" vertex="1">
          <mxGeometry x="600" y="100" width="60" height="20" as="geometry" />
        </mxCell>
        <mxCell id="G1SJDguI5GNS14YKXZPK-14" style="edgeStyle=orthogonalEdgeStyle;shape=connector;rounded=0;orthogonalLoop=1;jettySize=auto;html=1;exitX=0.5;exitY=0;exitDx=0;exitDy=0;entryX=0.5;entryY=1;entryDx=0;entryDy=0;labelBackgroundColor=default;strokeColor=#457B9D;fontFamily=Helvetica;fontSize=11;fontColor=default;endArrow=block;endFill=0;" parent="1" source="G1SJDguI5GNS14YKXZPK-2" target="G1SJDguI5GNS14YKXZPK-1" edge="1">
          <mxGeometry relative="1" as="geometry" />
        </mxCell>
        <mxCell id="G1SJDguI5GNS14YKXZPK-2" value="&lt;p style=&quot;margin: 4px 0px 0px; font-size: 10px;&quot;&gt;&lt;span style=&quot;font-size: 10px;&quot;&gt;ExecutorService&lt;/span&gt;&lt;/p&gt;" style="verticalAlign=middle;align=center;overflow=fill;fontSize=10;fontFamily=Helvetica;html=1;fillColor=#d5e8d4;strokeColor=#82b366;fontStyle=0" parent="1" vertex="1">
          <mxGeometry x="585" y="150" width="90" height="20" as="geometry" />
        </mxCell>
        <mxCell id="G1SJDguI5GNS14YKXZPK-13" style="edgeStyle=orthogonalEdgeStyle;shape=connector;rounded=0;orthogonalLoop=1;jettySize=auto;html=1;exitX=0.5;exitY=0;exitDx=0;exitDy=0;entryX=0.5;entryY=1;entryDx=0;entryDy=0;labelBackgroundColor=default;strokeColor=#457B9D;fontFamily=Helvetica;fontSize=11;fontColor=default;endArrow=block;endFill=0;dashed=1;" parent="1" source="G1SJDguI5GNS14YKXZPK-3" target="G1SJDguI5GNS14YKXZPK-2" edge="1">
          <mxGeometry relative="1" as="geometry" />
        </mxCell>
        <mxCell id="G1SJDguI5GNS14YKXZPK-3" value="&lt;p style=&quot;margin: 4px 0px 0px; font-size: 10px;&quot;&gt;&lt;span style=&quot;font-size: 10px;&quot;&gt;AbstractExecutorService&lt;/span&gt;&lt;/p&gt;" style="verticalAlign=middle;align=center;overflow=fill;fontSize=10;fontFamily=Helvetica;html=1;fillColor=#dae8fc;strokeColor=#6c8ebf;fontStyle=0" parent="1" vertex="1">
          <mxGeometry x="570" y="200" width="120" height="20" as="geometry" />
        </mxCell>
        <mxCell id="G1SJDguI5GNS14YKXZPK-15" style="edgeStyle=orthogonalEdgeStyle;shape=connector;rounded=0;orthogonalLoop=1;jettySize=auto;html=1;exitX=0.5;exitY=0;exitDx=0;exitDy=0;entryX=0.75;entryY=1;entryDx=0;entryDy=0;labelBackgroundColor=default;strokeColor=#457B9D;fontFamily=Helvetica;fontSize=11;fontColor=default;endArrow=block;endFill=0;" parent="1" source="G1SJDguI5GNS14YKXZPK-4" target="G1SJDguI5GNS14YKXZPK-2" edge="1">
          <mxGeometry relative="1" as="geometry">
            <Array as="points">
              <mxPoint x="785" y="190" />
              <mxPoint x="653" y="190" />
            </Array>
          </mxGeometry>
        </mxCell>
        <mxCell id="G1SJDguI5GNS14YKXZPK-4" value="&lt;p style=&quot;margin: 4px 0px 0px; font-size: 10px;&quot;&gt;&lt;span style=&quot;font-size: 10px;&quot;&gt;ScheduledExecutorService&lt;/span&gt;&lt;/p&gt;" style="verticalAlign=middle;align=center;overflow=fill;fontSize=10;fontFamily=Helvetica;html=1;fillColor=#d5e8d4;strokeColor=#82b366;fontStyle=0" parent="1" vertex="1">
          <mxGeometry x="720" y="200" width="130" height="20" as="geometry" />
        </mxCell>
        <mxCell id="G1SJDguI5GNS14YKXZPK-5" value="&lt;p style=&quot;margin: 4px 0px 0px; font-size: 10px;&quot;&gt;&lt;span style=&quot;font-size: 10px;&quot;&gt;Iterable&amp;lt;EventExecutor&amp;gt;&lt;/span&gt;&lt;/p&gt;" style="verticalAlign=middle;align=center;overflow=fill;fontSize=10;fontFamily=Helvetica;html=1;fillColor=#d5e8d4;strokeColor=#82b366;fontStyle=0" parent="1" vertex="1">
          <mxGeometry x="880" y="200" width="120" height="20" as="geometry" />
        </mxCell>
        <mxCell id="G1SJDguI5GNS14YKXZPK-11" style="edgeStyle=orthogonalEdgeStyle;shape=connector;rounded=0;orthogonalLoop=1;jettySize=auto;html=1;exitX=0.25;exitY=0;exitDx=0;exitDy=0;entryX=0.5;entryY=1;entryDx=0;entryDy=0;labelBackgroundColor=default;strokeColor=#457B9D;fontFamily=Helvetica;fontSize=11;fontColor=default;endArrow=block;endFill=0;" parent="1" source="G1SJDguI5GNS14YKXZPK-6" target="G1SJDguI5GNS14YKXZPK-4" edge="1">
          <mxGeometry relative="1" as="geometry">
            <Array as="points">
              <mxPoint x="835" y="240" />
              <mxPoint x="785" y="240" />
            </Array>
          </mxGeometry>
        </mxCell>
        <mxCell id="G1SJDguI5GNS14YKXZPK-12" style="edgeStyle=orthogonalEdgeStyle;shape=connector;rounded=0;orthogonalLoop=1;jettySize=auto;html=1;exitX=0.75;exitY=0;exitDx=0;exitDy=0;entryX=0.5;entryY=1;entryDx=0;entryDy=0;labelBackgroundColor=default;strokeColor=#457B9D;fontFamily=Helvetica;fontSize=11;fontColor=default;endArrow=block;endFill=0;" parent="1" source="G1SJDguI5GNS14YKXZPK-6" target="G1SJDguI5GNS14YKXZPK-5" edge="1">
          <mxGeometry relative="1" as="geometry">
            <Array as="points">
              <mxPoint x="885" y="240" />
              <mxPoint x="940" y="240" />
            </Array>
          </mxGeometry>
        </mxCell>
        <mxCell id="G1SJDguI5GNS14YKXZPK-6" value="&lt;p style=&quot;margin: 4px 0px 0px; font-size: 10px;&quot;&gt;&lt;span style=&quot;font-size: 10px;&quot;&gt;EventExecutorGroup&lt;/span&gt;&lt;/p&gt;" style="verticalAlign=middle;align=center;overflow=fill;fontSize=10;fontFamily=Helvetica;html=1;fillColor=#d5e8d4;strokeColor=#82b366;fontStyle=0" parent="1" vertex="1">
          <mxGeometry x="810" y="250" width="100" height="20" as="geometry" />
        </mxCell>
        <mxCell id="G1SJDguI5GNS14YKXZPK-7" value="" style="endArrow=none;dashed=1;html=1;rounded=0;labelBackgroundColor=default;strokeColor=#457B9D;fontFamily=Helvetica;fontSize=11;fontColor=default;shape=connector;" parent="1" edge="1">
          <mxGeometry width="50" height="50" relative="1" as="geometry">
            <mxPoint x="560" y="232" as="sourcePoint" />
            <mxPoint x="1120" y="232" as="targetPoint" />
          </mxGeometry>
        </mxCell>
        <mxCell id="G1SJDguI5GNS14YKXZPK-8" value="java.util.concurrent" style="text;html=1;align=center;verticalAlign=middle;resizable=0;points=[];autosize=1;strokeColor=none;fillColor=none;fontSize=10;fontFamily=Helvetica;fontColor=default;" parent="1" vertex="1">
          <mxGeometry x="1010" y="202" width="110" height="30" as="geometry" />
        </mxCell>
        <mxCell id="G1SJDguI5GNS14YKXZPK-16" style="edgeStyle=orthogonalEdgeStyle;shape=connector;rounded=0;orthogonalLoop=1;jettySize=auto;html=1;exitX=0.5;exitY=0;exitDx=0;exitDy=0;entryX=0.25;entryY=1;entryDx=0;entryDy=0;labelBackgroundColor=default;strokeColor=#457B9D;fontFamily=Helvetica;fontSize=11;fontColor=default;endArrow=block;endFill=0;" parent="1" source="G1SJDguI5GNS14YKXZPK-9" target="G1SJDguI5GNS14YKXZPK-6" edge="1">
          <mxGeometry relative="1" as="geometry">
            <Array as="points">
              <mxPoint x="780" y="290" />
              <mxPoint x="835" y="290" />
            </Array>
          </mxGeometry>
        </mxCell>
        <mxCell id="G1SJDguI5GNS14YKXZPK-9" value="&lt;p style=&quot;margin: 4px 0px 0px; font-size: 10px;&quot;&gt;&lt;span style=&quot;font-size: 10px;&quot;&gt;EventExecutor&lt;/span&gt;&lt;/p&gt;" style="verticalAlign=middle;align=center;overflow=fill;fontSize=10;fontFamily=Helvetica;html=1;fillColor=#d5e8d4;strokeColor=#82b366;fontStyle=0" parent="1" vertex="1">
          <mxGeometry x="740" y="300" width="80" height="20" as="geometry" />
        </mxCell>
        <mxCell id="G1SJDguI5GNS14YKXZPK-19" style="edgeStyle=orthogonalEdgeStyle;shape=connector;rounded=0;orthogonalLoop=1;jettySize=auto;html=1;exitX=0.5;exitY=0;exitDx=0;exitDy=0;entryX=0.5;entryY=1;entryDx=0;entryDy=0;labelBackgroundColor=default;strokeColor=#457B9D;fontFamily=Helvetica;fontSize=11;fontColor=default;endArrow=block;endFill=0;" parent="1" source="G1SJDguI5GNS14YKXZPK-17" target="G1SJDguI5GNS14YKXZPK-9" edge="1">
          <mxGeometry relative="1" as="geometry" />
        </mxCell>
        <mxCell id="G1SJDguI5GNS14YKXZPK-17" value="&lt;p style=&quot;margin: 4px 0px 0px; font-size: 10px;&quot;&gt;&lt;span style=&quot;font-size: 10px;&quot;&gt;OrderedEventExecutor&lt;/span&gt;&lt;/p&gt;" style="verticalAlign=middle;align=center;overflow=fill;fontSize=10;fontFamily=Helvetica;html=1;fillColor=#d5e8d4;strokeColor=#82b366;fontStyle=0" parent="1" vertex="1">
          <mxGeometry x="725" y="380" width="110" height="20" as="geometry" />
        </mxCell>
        <mxCell id="G1SJDguI5GNS14YKXZPK-20" style="edgeStyle=orthogonalEdgeStyle;shape=connector;rounded=0;orthogonalLoop=1;jettySize=auto;html=1;exitX=0.25;exitY=0;exitDx=0;exitDy=0;entryX=0.5;entryY=1;entryDx=0;entryDy=0;labelBackgroundColor=default;strokeColor=#457B9D;fontFamily=Helvetica;fontSize=11;fontColor=default;endArrow=block;endFill=0;" parent="1" source="G1SJDguI5GNS14YKXZPK-18" target="G1SJDguI5GNS14YKXZPK-17" edge="1">
          <mxGeometry relative="1" as="geometry" />
        </mxCell>
        <mxCell id="G1SJDguI5GNS14YKXZPK-39" style="edgeStyle=orthogonalEdgeStyle;shape=connector;rounded=0;orthogonalLoop=1;jettySize=auto;html=1;exitX=0.75;exitY=0;exitDx=0;exitDy=0;entryX=0.5;entryY=1;entryDx=0;entryDy=0;labelBackgroundColor=default;strokeColor=#457B9D;fontFamily=Helvetica;fontSize=11;fontColor=default;endArrow=block;endFill=0;" parent="1" source="G1SJDguI5GNS14YKXZPK-18" target="G1SJDguI5GNS14YKXZPK-38" edge="1">
          <mxGeometry relative="1" as="geometry">
            <Array as="points">
              <mxPoint x="860" y="440" />
            </Array>
          </mxGeometry>
        </mxCell>
        <mxCell id="G1SJDguI5GNS14YKXZPK-18" value="&lt;p style=&quot;margin: 4px 0px 0px; font-size: 10px;&quot;&gt;&lt;span style=&quot;font-size: 10px;&quot;&gt;EventLoop&lt;/span&gt;&lt;/p&gt;" style="verticalAlign=middle;align=center;overflow=fill;fontSize=10;fontFamily=Helvetica;html=1;fillColor=#d5e8d4;strokeColor=#82b366;fontStyle=0" parent="1" vertex="1">
          <mxGeometry x="820" y="440" width="80" height="20" as="geometry" />
        </mxCell>
        <mxCell id="G1SJDguI5GNS14YKXZPK-22" style="edgeStyle=orthogonalEdgeStyle;shape=connector;rounded=0;orthogonalLoop=1;jettySize=auto;html=1;exitX=0.5;exitY=0;exitDx=0;exitDy=0;entryX=0.5;entryY=1;entryDx=0;entryDy=0;labelBackgroundColor=default;strokeColor=#457B9D;fontFamily=Helvetica;fontSize=11;fontColor=default;endArrow=block;endFill=0;" parent="1" source="G1SJDguI5GNS14YKXZPK-21" target="G1SJDguI5GNS14YKXZPK-3" edge="1">
          <mxGeometry relative="1" as="geometry" />
        </mxCell>
        <mxCell id="G1SJDguI5GNS14YKXZPK-23" style="edgeStyle=orthogonalEdgeStyle;shape=connector;rounded=0;orthogonalLoop=1;jettySize=auto;html=1;exitX=0.75;exitY=0;exitDx=0;exitDy=0;entryX=0.25;entryY=1;entryDx=0;entryDy=0;labelBackgroundColor=default;strokeColor=#457B9D;fontFamily=Helvetica;fontSize=11;fontColor=default;endArrow=block;endFill=0;dashed=1;" parent="1" source="G1SJDguI5GNS14YKXZPK-21" target="G1SJDguI5GNS14YKXZPK-9" edge="1">
          <mxGeometry relative="1" as="geometry">
            <Array as="points">
              <mxPoint x="660" y="340" />
              <mxPoint x="760" y="340" />
            </Array>
          </mxGeometry>
        </mxCell>
        <mxCell id="G1SJDguI5GNS14YKXZPK-21" value="&lt;p style=&quot;margin: 4px 0px 0px; font-size: 10px;&quot;&gt;&lt;span style=&quot;font-size: 10px;&quot;&gt;AbstractEventExecutor&lt;/span&gt;&lt;/p&gt;" style="verticalAlign=middle;align=center;overflow=fill;fontSize=10;fontFamily=Helvetica;html=1;fillColor=#dae8fc;strokeColor=#6c8ebf;fontStyle=0" parent="1" vertex="1">
          <mxGeometry x="570" y="350" width="120" height="20" as="geometry" />
        </mxCell>
        <mxCell id="G1SJDguI5GNS14YKXZPK-25" style="edgeStyle=orthogonalEdgeStyle;shape=connector;rounded=0;orthogonalLoop=1;jettySize=auto;html=1;exitX=0.5;exitY=0;exitDx=0;exitDy=0;entryX=0.5;entryY=1;entryDx=0;entryDy=0;labelBackgroundColor=default;strokeColor=#457B9D;fontFamily=Helvetica;fontSize=11;fontColor=default;endArrow=block;endFill=0;" parent="1" source="G1SJDguI5GNS14YKXZPK-24" target="G1SJDguI5GNS14YKXZPK-21" edge="1">
          <mxGeometry relative="1" as="geometry" />
        </mxCell>
        <mxCell id="G1SJDguI5GNS14YKXZPK-24" value="&lt;p style=&quot;margin: 4px 0px 0px; font-size: 10px;&quot;&gt;&lt;span style=&quot;font-size: 10px;&quot;&gt;AbstractScheduledEventExecutor&lt;/span&gt;&lt;/p&gt;" style="verticalAlign=middle;align=center;overflow=fill;fontSize=10;fontFamily=Helvetica;html=1;fillColor=#dae8fc;strokeColor=#6c8ebf;fontStyle=0" parent="1" vertex="1">
          <mxGeometry x="550" y="400" width="160" height="20" as="geometry" />
        </mxCell>
        <mxCell id="G1SJDguI5GNS14YKXZPK-29" style="edgeStyle=orthogonalEdgeStyle;shape=connector;rounded=0;orthogonalLoop=1;jettySize=auto;html=1;exitX=0.5;exitY=0;exitDx=0;exitDy=0;entryX=0.5;entryY=1;entryDx=0;entryDy=0;labelBackgroundColor=default;strokeColor=#457B9D;fontFamily=Helvetica;fontSize=11;fontColor=default;endArrow=block;endFill=0;" parent="1" source="G1SJDguI5GNS14YKXZPK-26" target="G1SJDguI5GNS14YKXZPK-24" edge="1">
          <mxGeometry relative="1" as="geometry" />
        </mxCell>
        <mxCell id="G1SJDguI5GNS14YKXZPK-36" style="edgeStyle=orthogonalEdgeStyle;shape=connector;rounded=0;orthogonalLoop=1;jettySize=auto;html=1;exitX=0.75;exitY=0;exitDx=0;exitDy=0;entryX=0.25;entryY=1;entryDx=0;entryDy=0;labelBackgroundColor=default;strokeColor=#457B9D;fontFamily=Helvetica;fontSize=11;fontColor=default;endArrow=block;endFill=0;dashed=1;" parent="1" source="G1SJDguI5GNS14YKXZPK-26" target="G1SJDguI5GNS14YKXZPK-17" edge="1">
          <mxGeometry relative="1" as="geometry">
            <Array as="points">
              <mxPoint x="665" y="430" />
              <mxPoint x="753" y="430" />
            </Array>
          </mxGeometry>
        </mxCell>
        <mxCell id="G1SJDguI5GNS14YKXZPK-26" value="&lt;p style=&quot;margin: 4px 0px 0px; font-size: 10px;&quot;&gt;&lt;span style=&quot;font-size: 10px;&quot;&gt;SingleThreadEventExecutor&lt;/span&gt;&lt;/p&gt;" style="verticalAlign=middle;align=center;overflow=fill;fontSize=10;fontFamily=Helvetica;html=1;fillColor=#dae8fc;strokeColor=#6c8ebf;fontStyle=0" parent="1" vertex="1">
          <mxGeometry x="560" y="450" width="140" height="20" as="geometry" />
        </mxCell>
        <mxCell id="G1SJDguI5GNS14YKXZPK-31" style="edgeStyle=orthogonalEdgeStyle;shape=connector;rounded=0;orthogonalLoop=1;jettySize=auto;html=1;exitX=0.5;exitY=0;exitDx=0;exitDy=0;entryX=0.5;entryY=1;entryDx=0;entryDy=0;labelBackgroundColor=default;strokeColor=#457B9D;fontFamily=Helvetica;fontSize=11;fontColor=default;endArrow=block;endFill=0;" parent="1" source="G1SJDguI5GNS14YKXZPK-30" target="G1SJDguI5GNS14YKXZPK-26" edge="1">
          <mxGeometry relative="1" as="geometry" />
        </mxCell>
        <mxCell id="G1SJDguI5GNS14YKXZPK-34" style="edgeStyle=orthogonalEdgeStyle;shape=connector;rounded=0;orthogonalLoop=1;jettySize=auto;html=1;exitX=0.75;exitY=0;exitDx=0;exitDy=0;entryX=0.5;entryY=1;entryDx=0;entryDy=0;labelBackgroundColor=default;strokeColor=#457B9D;fontFamily=Helvetica;fontSize=11;fontColor=default;endArrow=block;endFill=0;dashed=1;" parent="1" source="G1SJDguI5GNS14YKXZPK-30" target="G1SJDguI5GNS14YKXZPK-18" edge="1">
          <mxGeometry relative="1" as="geometry">
            <Array as="points">
              <mxPoint x="660" y="490" />
              <mxPoint x="860" y="490" />
            </Array>
          </mxGeometry>
        </mxCell>
        <mxCell id="G1SJDguI5GNS14YKXZPK-37" style="edgeStyle=orthogonalEdgeStyle;shape=connector;rounded=0;orthogonalLoop=1;jettySize=auto;html=1;exitX=0.25;exitY=0;exitDx=0;exitDy=0;labelBackgroundColor=default;strokeColor=#457B9D;fontFamily=Helvetica;fontSize=11;fontColor=default;endArrow=open;endFill=0;entryX=0.25;entryY=1;entryDx=0;entryDy=0;" parent="1" source="G1SJDguI5GNS14YKXZPK-30" target="G1SJDguI5GNS14YKXZPK-1" edge="1">
          <mxGeometry relative="1" as="geometry">
            <mxPoint x="530" y="310" as="targetPoint" />
            <Array as="points">
              <mxPoint x="600" y="490" />
              <mxPoint x="540" y="490" />
              <mxPoint x="540" y="140" />
              <mxPoint x="615" y="140" />
            </Array>
          </mxGeometry>
        </mxCell>
        <mxCell id="G1SJDguI5GNS14YKXZPK-30" value="&lt;p style=&quot;margin: 4px 0px 0px; font-size: 10px;&quot;&gt;&lt;span style=&quot;font-size: 10px;&quot;&gt;SingleThreadEventLoop&lt;/span&gt;&lt;/p&gt;" style="verticalAlign=middle;align=center;overflow=fill;fontSize=10;fontFamily=Helvetica;html=1;fillColor=#dae8fc;strokeColor=#6c8ebf;fontStyle=0" parent="1" vertex="1">
          <mxGeometry x="570" y="500" width="120" height="20" as="geometry" />
        </mxCell>
        <mxCell id="G1SJDguI5GNS14YKXZPK-33" style="edgeStyle=orthogonalEdgeStyle;shape=connector;rounded=0;orthogonalLoop=1;jettySize=auto;html=1;exitX=0.5;exitY=0;exitDx=0;exitDy=0;entryX=0.5;entryY=1;entryDx=0;entryDy=0;labelBackgroundColor=default;strokeColor=#457B9D;fontFamily=Helvetica;fontSize=11;fontColor=default;endArrow=block;endFill=0;" parent="1" source="G1SJDguI5GNS14YKXZPK-32" target="G1SJDguI5GNS14YKXZPK-30" edge="1">
          <mxGeometry relative="1" as="geometry" />
        </mxCell>
        <mxCell id="G1SJDguI5GNS14YKXZPK-32" value="&lt;p style=&quot;margin: 4px 0px 0px; font-size: 10px;&quot;&gt;&lt;span style=&quot;font-size: 10px;&quot;&gt;NioEventLoop&lt;/span&gt;&lt;/p&gt;" style="verticalAlign=middle;align=center;overflow=fill;fontSize=10;fontFamily=Helvetica;html=1;fillColor=#dae8fc;strokeColor=#6c8ebf;fontStyle=0" parent="1" vertex="1">
          <mxGeometry x="590" y="550" width="80" height="20" as="geometry" />
        </mxCell>
        <mxCell id="G1SJDguI5GNS14YKXZPK-40" style="edgeStyle=orthogonalEdgeStyle;shape=connector;rounded=0;orthogonalLoop=1;jettySize=auto;html=1;exitX=0.5;exitY=0;exitDx=0;exitDy=0;entryX=0.5;entryY=1;entryDx=0;entryDy=0;labelBackgroundColor=default;strokeColor=#457B9D;fontFamily=Helvetica;fontSize=11;fontColor=default;endArrow=block;endFill=0;" parent="1" source="G1SJDguI5GNS14YKXZPK-38" target="G1SJDguI5GNS14YKXZPK-6" edge="1">
          <mxGeometry relative="1" as="geometry" />
        </mxCell>
        <mxCell id="G1SJDguI5GNS14YKXZPK-38" value="&lt;p style=&quot;margin: 4px 0px 0px; font-size: 10px;&quot;&gt;&lt;span style=&quot;font-size: 10px;&quot;&gt;EventLoopGroup&lt;/span&gt;&lt;/p&gt;" style="verticalAlign=middle;align=center;overflow=fill;fontSize=10;fontFamily=Helvetica;html=1;fillColor=#d5e8d4;strokeColor=#82b366;fontStyle=0" parent="1" vertex="1">
          <mxGeometry x="815" y="350" width="90" height="20" as="geometry" />
        </mxCell>
        <mxCell id="G1SJDguI5GNS14YKXZPK-44" style="edgeStyle=orthogonalEdgeStyle;shape=connector;rounded=0;orthogonalLoop=1;jettySize=auto;html=1;exitX=0.5;exitY=0;exitDx=0;exitDy=0;entryX=0.75;entryY=1;entryDx=0;entryDy=0;labelBackgroundColor=default;strokeColor=#457B9D;fontFamily=Helvetica;fontSize=11;fontColor=default;endArrow=block;endFill=0;dashed=1;" parent="1" source="G1SJDguI5GNS14YKXZPK-42" target="G1SJDguI5GNS14YKXZPK-6" edge="1">
          <mxGeometry relative="1" as="geometry">
            <Array as="points">
              <mxPoint x="1000" y="300" />
              <mxPoint x="885" y="300" />
            </Array>
          </mxGeometry>
        </mxCell>
        <mxCell id="G1SJDguI5GNS14YKXZPK-42" value="&lt;p style=&quot;margin: 4px 0px 0px; font-size: 10px;&quot;&gt;&lt;span style=&quot;font-size: 10px;&quot;&gt;AbstractEventExecutorGroup&lt;/span&gt;&lt;/p&gt;" style="verticalAlign=middle;align=center;overflow=fill;fontSize=10;fontFamily=Helvetica;html=1;fillColor=#dae8fc;strokeColor=#6c8ebf;fontStyle=0" parent="1" vertex="1">
          <mxGeometry x="930" y="310" width="140" height="20" as="geometry" />
        </mxCell>
        <mxCell id="G1SJDguI5GNS14YKXZPK-48" style="edgeStyle=orthogonalEdgeStyle;shape=connector;rounded=0;orthogonalLoop=1;jettySize=auto;html=1;exitX=0.5;exitY=0;exitDx=0;exitDy=0;entryX=0.5;entryY=1;entryDx=0;entryDy=0;labelBackgroundColor=default;strokeColor=#457B9D;fontFamily=Helvetica;fontSize=11;fontColor=default;endArrow=block;endFill=0;" parent="1" source="G1SJDguI5GNS14YKXZPK-43" target="G1SJDguI5GNS14YKXZPK-42" edge="1">
          <mxGeometry relative="1" as="geometry" />
        </mxCell>
        <mxCell id="G1SJDguI5GNS14YKXZPK-49" style="edgeStyle=orthogonalEdgeStyle;shape=connector;rounded=0;orthogonalLoop=1;jettySize=auto;html=1;exitX=0.25;exitY=0;exitDx=0;exitDy=0;entryX=0.75;entryY=1;entryDx=0;entryDy=0;labelBackgroundColor=default;strokeColor=#457B9D;fontFamily=Helvetica;fontSize=11;fontColor=default;endArrow=none;endFill=0;startArrow=diamondThin;startFill=0;startSize=10;" parent="1" source="G1SJDguI5GNS14YKXZPK-43" target="G1SJDguI5GNS14YKXZPK-9" edge="1">
          <mxGeometry relative="1" as="geometry">
            <Array as="points">
              <mxPoint x="960" y="340" />
              <mxPoint x="800" y="340" />
            </Array>
          </mxGeometry>
        </mxCell>
        <mxCell id="G1SJDguI5GNS14YKXZPK-43" value="&lt;p style=&quot;margin: 4px 0px 0px; font-size: 10px;&quot;&gt;&lt;span style=&quot;font-size: 10px;&quot;&gt;MultithreadEventExecutorGroup&lt;/span&gt;&lt;/p&gt;" style="verticalAlign=middle;align=center;overflow=fill;fontSize=10;fontFamily=Helvetica;html=1;fillColor=#dae8fc;strokeColor=#6c8ebf;fontStyle=0" parent="1" vertex="1">
          <mxGeometry x="920" y="390" width="160" height="20" as="geometry" />
        </mxCell>
        <mxCell id="G1SJDguI5GNS14YKXZPK-46" style="edgeStyle=orthogonalEdgeStyle;shape=connector;rounded=0;orthogonalLoop=1;jettySize=auto;html=1;exitX=0.25;exitY=0;exitDx=0;exitDy=0;entryX=0.75;entryY=1;entryDx=0;entryDy=0;labelBackgroundColor=default;strokeColor=#457B9D;fontFamily=Helvetica;fontSize=11;fontColor=default;endArrow=block;endFill=0;dashed=1;" parent="1" source="G1SJDguI5GNS14YKXZPK-45" target="G1SJDguI5GNS14YKXZPK-38" edge="1">
          <mxGeometry relative="1" as="geometry">
            <Array as="points">
              <mxPoint x="965" y="430" />
              <mxPoint x="883" y="430" />
            </Array>
          </mxGeometry>
        </mxCell>
        <mxCell id="G1SJDguI5GNS14YKXZPK-47" style="edgeStyle=orthogonalEdgeStyle;shape=connector;rounded=0;orthogonalLoop=1;jettySize=auto;html=1;exitX=0.5;exitY=0;exitDx=0;exitDy=0;entryX=0.5;entryY=1;entryDx=0;entryDy=0;labelBackgroundColor=default;strokeColor=#457B9D;fontFamily=Helvetica;fontSize=11;fontColor=default;endArrow=block;endFill=0;" parent="1" source="G1SJDguI5GNS14YKXZPK-45" target="G1SJDguI5GNS14YKXZPK-43" edge="1">
          <mxGeometry relative="1" as="geometry" />
        </mxCell>
        <mxCell id="G1SJDguI5GNS14YKXZPK-45" value="&lt;p style=&quot;margin: 4px 0px 0px; font-size: 10px;&quot;&gt;&lt;span style=&quot;font-size: 10px;&quot;&gt;MultithreadEventLoopGroup&lt;/span&gt;&lt;/p&gt;" style="verticalAlign=middle;align=center;overflow=fill;fontSize=10;fontFamily=Helvetica;html=1;fillColor=#dae8fc;strokeColor=#6c8ebf;fontStyle=0" parent="1" vertex="1">
          <mxGeometry x="930" y="450" width="140" height="20" as="geometry" />
        </mxCell>
        <mxCell id="G1SJDguI5GNS14YKXZPK-51" style="edgeStyle=orthogonalEdgeStyle;shape=connector;rounded=0;orthogonalLoop=1;jettySize=auto;html=1;exitX=0.5;exitY=0;exitDx=0;exitDy=0;entryX=0.5;entryY=1;entryDx=0;entryDy=0;labelBackgroundColor=default;strokeColor=#457B9D;fontFamily=Helvetica;fontSize=11;fontColor=default;endArrow=block;endFill=0;" parent="1" source="G1SJDguI5GNS14YKXZPK-50" target="G1SJDguI5GNS14YKXZPK-45" edge="1">
          <mxGeometry relative="1" as="geometry" />
        </mxCell>
        <mxCell id="G1SJDguI5GNS14YKXZPK-50" value="&lt;p style=&quot;margin: 4px 0px 0px; font-size: 10px;&quot;&gt;&lt;span style=&quot;font-size: 10px;&quot;&gt;NioEventLoopGroup&lt;/span&gt;&lt;/p&gt;" style="verticalAlign=middle;align=center;overflow=fill;fontSize=10;fontFamily=Helvetica;html=1;fillColor=#dae8fc;strokeColor=#6c8ebf;fontStyle=0" parent="1" vertex="1">
          <mxGeometry x="950" y="510" width="100" height="20" as="geometry" />
        </mxCell>
        <mxCell id="5vC_YPOHCPxvv5NFeycX-14" style="edgeStyle=none;shape=connector;rounded=0;orthogonalLoop=1;jettySize=auto;html=1;exitX=1;exitY=0.5;exitDx=0;exitDy=0;entryX=0;entryY=0.5;entryDx=0;entryDy=0;labelBackgroundColor=default;strokeColor=#b85450;fontFamily=Helvetica;fontSize=10;fontColor=default;endArrow=classic;fillColor=#f8cecc;" edge="1" parent="1" source="5vC_YPOHCPxvv5NFeycX-1" target="5vC_YPOHCPxvv5NFeycX-10">
          <mxGeometry relative="1" as="geometry" />
        </mxCell>
        <mxCell id="5vC_YPOHCPxvv5NFeycX-1" value="Accept Thread" style="rounded=1;whiteSpace=wrap;html=1;fillColor=#f8cecc;strokeColor=#b85450;strokeWidth=0.5;fontSize=10;" vertex="1" parent="1">
          <mxGeometry x="680" y="930" width="100" height="30" as="geometry" />
        </mxCell>
        <mxCell id="5vC_YPOHCPxvv5NFeycX-6" style="rounded=0;orthogonalLoop=1;jettySize=auto;html=1;exitX=1;exitY=0.5;exitDx=0;exitDy=0;entryX=0;entryY=0.5;entryDx=0;entryDy=0;fillColor=#e1d5e7;strokeColor=#9673a6;" edge="1" parent="1" source="5vC_YPOHCPxvv5NFeycX-2" target="5vC_YPOHCPxvv5NFeycX-1">
          <mxGeometry relative="1" as="geometry" />
        </mxCell>
        <mxCell id="5vC_YPOHCPxvv5NFeycX-2" value="Submit Task" style="rounded=1;whiteSpace=wrap;html=1;fillColor=#e1d5e7;strokeColor=#9673a6;strokeWidth=0.5;fontSize=10;" vertex="1" parent="1">
          <mxGeometry x="540" y="935" width="80" height="20" as="geometry" />
        </mxCell>
        <mxCell id="5vC_YPOHCPxvv5NFeycX-8" style="edgeStyle=none;shape=connector;rounded=0;orthogonalLoop=1;jettySize=auto;html=1;exitX=1;exitY=0.5;exitDx=0;exitDy=0;labelBackgroundColor=default;strokeColor=#9673a6;fontFamily=Helvetica;fontSize=11;fontColor=default;endArrow=none;fillColor=#e1d5e7;endFill=0;" edge="1" parent="1" source="5vC_YPOHCPxvv5NFeycX-3">
          <mxGeometry relative="1" as="geometry">
            <mxPoint x="670" y="945" as="targetPoint" />
          </mxGeometry>
        </mxCell>
        <mxCell id="5vC_YPOHCPxvv5NFeycX-3" value="Submit Task" style="rounded=1;whiteSpace=wrap;html=1;fillColor=#e1d5e7;strokeColor=#9673a6;strokeWidth=0.5;fontSize=10;" vertex="1" parent="1">
          <mxGeometry x="540" y="890" width="80" height="20" as="geometry" />
        </mxCell>
        <mxCell id="5vC_YPOHCPxvv5NFeycX-9" style="edgeStyle=none;shape=connector;rounded=0;orthogonalLoop=1;jettySize=auto;html=1;exitX=1;exitY=0.5;exitDx=0;exitDy=0;labelBackgroundColor=default;strokeColor=#9673a6;fontFamily=Helvetica;fontSize=11;fontColor=default;endArrow=none;fillColor=#e1d5e7;endFill=0;" edge="1" parent="1" source="5vC_YPOHCPxvv5NFeycX-4">
          <mxGeometry relative="1" as="geometry">
            <mxPoint x="670" y="945" as="targetPoint" />
          </mxGeometry>
        </mxCell>
        <mxCell id="5vC_YPOHCPxvv5NFeycX-4" value="Submit Task" style="rounded=1;whiteSpace=wrap;html=1;fillColor=#e1d5e7;strokeColor=#9673a6;strokeWidth=0.5;fontSize=10;" vertex="1" parent="1">
          <mxGeometry x="540" y="980" width="80" height="20" as="geometry" />
        </mxCell>
        <mxCell id="5vC_YPOHCPxvv5NFeycX-10" value="Task" style="rounded=0;whiteSpace=wrap;html=1;fillColor=#f8cecc;strokeColor=#b85450;strokeWidth=0.5;fontSize=10;" vertex="1" parent="1">
          <mxGeometry x="840" y="935" width="40" height="20" as="geometry" />
        </mxCell>
        <mxCell id="5vC_YPOHCPxvv5NFeycX-11" value="Task" style="rounded=0;whiteSpace=wrap;html=1;fillColor=#f8cecc;strokeColor=#b85450;strokeWidth=0.5;fontSize=10;" vertex="1" parent="1">
          <mxGeometry x="880" y="935" width="40" height="20" as="geometry" />
        </mxCell>
        <mxCell id="5vC_YPOHCPxvv5NFeycX-12" value="..." style="rounded=0;whiteSpace=wrap;html=1;fillColor=#f8cecc;strokeColor=#b85450;strokeWidth=0.5;fontSize=10;" vertex="1" parent="1">
          <mxGeometry x="920" y="935" width="40" height="20" as="geometry" />
        </mxCell>
        <mxCell id="5vC_YPOHCPxvv5NFeycX-20" style="edgeStyle=none;shape=connector;rounded=0;orthogonalLoop=1;jettySize=auto;html=1;exitX=1;exitY=0.5;exitDx=0;exitDy=0;entryX=0;entryY=0.5;entryDx=0;entryDy=0;labelBackgroundColor=default;strokeColor=#6c8ebf;fontFamily=Helvetica;fontSize=11;fontColor=default;endArrow=classic;fillColor=#dae8fc;" edge="1" parent="1" source="5vC_YPOHCPxvv5NFeycX-13" target="5vC_YPOHCPxvv5NFeycX-16">
          <mxGeometry relative="1" as="geometry" />
        </mxCell>
        <mxCell id="5vC_YPOHCPxvv5NFeycX-21" style="edgeStyle=none;shape=connector;rounded=0;orthogonalLoop=1;jettySize=auto;html=1;exitX=1;exitY=0.5;exitDx=0;exitDy=0;entryX=0;entryY=0.5;entryDx=0;entryDy=0;labelBackgroundColor=default;strokeColor=#6c8ebf;fontFamily=Helvetica;fontSize=10;fontColor=default;endArrow=classic;fillColor=#dae8fc;" edge="1" parent="1" source="5vC_YPOHCPxvv5NFeycX-13" target="5vC_YPOHCPxvv5NFeycX-19">
          <mxGeometry relative="1" as="geometry" />
        </mxCell>
        <mxCell id="5vC_YPOHCPxvv5NFeycX-22" style="edgeStyle=none;shape=connector;rounded=0;orthogonalLoop=1;jettySize=auto;html=1;exitX=1;exitY=0.5;exitDx=0;exitDy=0;entryX=0;entryY=0.5;entryDx=0;entryDy=0;labelBackgroundColor=default;strokeColor=#6c8ebf;fontFamily=Helvetica;fontSize=10;fontColor=default;endArrow=classic;fillColor=#dae8fc;" edge="1" parent="1" source="5vC_YPOHCPxvv5NFeycX-13" target="5vC_YPOHCPxvv5NFeycX-18">
          <mxGeometry relative="1" as="geometry" />
        </mxCell>
        <mxCell id="5vC_YPOHCPxvv5NFeycX-13" value="Task" style="rounded=0;whiteSpace=wrap;html=1;fillColor=#f8cecc;strokeColor=#b85450;strokeWidth=0.5;fontSize=10;" vertex="1" parent="1">
          <mxGeometry x="960" y="935" width="40" height="20" as="geometry" />
        </mxCell>
        <mxCell id="5vC_YPOHCPxvv5NFeycX-16" value="Worker Thread" style="rounded=1;whiteSpace=wrap;html=1;fillColor=#dae8fc;strokeColor=#6c8ebf;strokeWidth=0.5;fontSize=10;" vertex="1" parent="1">
          <mxGeometry x="1060" y="890" width="90" height="20" as="geometry" />
        </mxCell>
        <mxCell id="5vC_YPOHCPxvv5NFeycX-18" value="Worker Thread" style="rounded=1;whiteSpace=wrap;html=1;fillColor=#dae8fc;strokeColor=#6c8ebf;strokeWidth=0.5;fontSize=10;" vertex="1" parent="1">
          <mxGeometry x="1060" y="980" width="90" height="20" as="geometry" />
        </mxCell>
        <mxCell id="5vC_YPOHCPxvv5NFeycX-19" value="Worker Thread" style="rounded=1;whiteSpace=wrap;html=1;fillColor=#dae8fc;strokeColor=#6c8ebf;strokeWidth=0.5;fontSize=10;" vertex="1" parent="1">
          <mxGeometry x="1060" y="935" width="90" height="20" as="geometry" />
        </mxCell>
        <mxCell id="5vC_YPOHCPxvv5NFeycX-23" value="接收任务" style="text;html=1;align=center;verticalAlign=middle;resizable=0;points=[];autosize=1;strokeColor=none;fillColor=none;fontSize=11;fontFamily=Helvetica;fontColor=default;" vertex="1" parent="1">
          <mxGeometry x="695" y="900" width="70" height="30" as="geometry" />
        </mxCell>
        <mxCell id="5vC_YPOHCPxvv5NFeycX-24" value="任务队列" style="text;html=1;align=center;verticalAlign=middle;resizable=0;points=[];autosize=1;strokeColor=none;fillColor=none;fontSize=11;fontFamily=Helvetica;fontColor=default;" vertex="1" parent="1">
          <mxGeometry x="880" y="905" width="70" height="30" as="geometry" />
        </mxCell>
        <mxCell id="5vC_YPOHCPxvv5NFeycX-26" value="处理任务" style="text;html=1;align=center;verticalAlign=middle;resizable=0;points=[];autosize=1;strokeColor=none;fillColor=none;fontSize=11;fontFamily=Helvetica;fontColor=default;" vertex="1" parent="1">
          <mxGeometry x="1070" y="850" width="70" height="30" as="geometry" />
        </mxCell>
        <mxCell id="5vC_YPOHCPxvv5NFeycX-27" value="提交任务" style="text;html=1;align=center;verticalAlign=middle;resizable=0;points=[];autosize=1;strokeColor=none;fillColor=none;fontSize=11;fontFamily=Helvetica;fontColor=default;" vertex="1" parent="1">
          <mxGeometry x="545" y="860" width="70" height="30" as="geometry" />
        </mxCell>
        <mxCell id="5vC_YPOHCPxvv5NFeycX-28" value="" style="rounded=1;whiteSpace=wrap;html=1;fillColor=#f5f5f5;strokeColor=#666666;strokeWidth=0.5;fontColor=#333333;fontSize=10;" vertex="1" parent="1">
          <mxGeometry x="1050" y="1150" width="110" height="130" as="geometry" />
        </mxCell>
        <mxCell id="5vC_YPOHCPxvv5NFeycX-30" value="Accept Thread" style="rounded=1;whiteSpace=wrap;html=1;fillColor=#f8cecc;strokeColor=#b85450;strokeWidth=0.5;fontSize=10;" vertex="1" parent="1">
          <mxGeometry x="788" y="1200" width="100" height="30" as="geometry" />
        </mxCell>
        <mxCell id="5vC_YPOHCPxvv5NFeycX-31" style="rounded=0;orthogonalLoop=1;jettySize=auto;html=1;exitX=1;exitY=0.5;exitDx=0;exitDy=0;entryX=0;entryY=0.5;entryDx=0;entryDy=0;fillColor=#e1d5e7;strokeColor=#9673a6;" edge="1" parent="1" source="5vC_YPOHCPxvv5NFeycX-32" target="5vC_YPOHCPxvv5NFeycX-30">
          <mxGeometry relative="1" as="geometry" />
        </mxCell>
        <mxCell id="5vC_YPOHCPxvv5NFeycX-32" value="Submit Task" style="rounded=1;whiteSpace=wrap;html=1;fillColor=#e1d5e7;strokeColor=#9673a6;strokeWidth=0.5;fontSize=10;" vertex="1" parent="1">
          <mxGeometry x="540" y="1205" width="80" height="20" as="geometry" />
        </mxCell>
        <mxCell id="5vC_YPOHCPxvv5NFeycX-33" style="edgeStyle=none;shape=connector;rounded=0;orthogonalLoop=1;jettySize=auto;html=1;exitX=1;exitY=0.5;exitDx=0;exitDy=0;labelBackgroundColor=default;strokeColor=#9673a6;fontFamily=Helvetica;fontSize=11;fontColor=default;endArrow=none;fillColor=#e1d5e7;endFill=0;" edge="1" parent="1" source="5vC_YPOHCPxvv5NFeycX-34">
          <mxGeometry relative="1" as="geometry">
            <mxPoint x="780" y="1215" as="targetPoint" />
          </mxGeometry>
        </mxCell>
        <mxCell id="5vC_YPOHCPxvv5NFeycX-34" value="Submit Task" style="rounded=1;whiteSpace=wrap;html=1;fillColor=#e1d5e7;strokeColor=#9673a6;strokeWidth=0.5;fontSize=10;" vertex="1" parent="1">
          <mxGeometry x="540" y="1160" width="80" height="20" as="geometry" />
        </mxCell>
        <mxCell id="5vC_YPOHCPxvv5NFeycX-35" style="edgeStyle=none;shape=connector;rounded=0;orthogonalLoop=1;jettySize=auto;html=1;exitX=1;exitY=0.5;exitDx=0;exitDy=0;labelBackgroundColor=default;strokeColor=#9673a6;fontFamily=Helvetica;fontSize=11;fontColor=default;endArrow=none;fillColor=#e1d5e7;endFill=0;" edge="1" parent="1" source="5vC_YPOHCPxvv5NFeycX-36">
          <mxGeometry relative="1" as="geometry">
            <mxPoint x="780" y="1215" as="targetPoint" />
          </mxGeometry>
        </mxCell>
        <mxCell id="5vC_YPOHCPxvv5NFeycX-36" value="Submit Task" style="rounded=1;whiteSpace=wrap;html=1;fillColor=#e1d5e7;strokeColor=#9673a6;strokeWidth=0.5;fontSize=10;" vertex="1" parent="1">
          <mxGeometry x="540" y="1250" width="80" height="20" as="geometry" />
        </mxCell>
        <mxCell id="5vC_YPOHCPxvv5NFeycX-40" style="edgeStyle=none;shape=connector;rounded=0;orthogonalLoop=1;jettySize=auto;html=1;entryX=0;entryY=0.5;entryDx=0;entryDy=0;labelBackgroundColor=default;strokeColor=#6c8ebf;fontFamily=Helvetica;fontSize=10;fontColor=default;endArrow=classic;fillColor=#dae8fc;" edge="1" parent="1" target="5vC_YPOHCPxvv5NFeycX-44">
          <mxGeometry relative="1" as="geometry">
            <mxPoint x="890" y="1215" as="sourcePoint" />
          </mxGeometry>
        </mxCell>
        <mxCell id="5vC_YPOHCPxvv5NFeycX-41" style="edgeStyle=none;shape=connector;rounded=0;orthogonalLoop=1;jettySize=auto;html=1;exitX=1;exitY=0.5;exitDx=0;exitDy=0;entryX=0;entryY=0.5;entryDx=0;entryDy=0;labelBackgroundColor=default;strokeColor=#6c8ebf;fontFamily=Helvetica;fontSize=10;fontColor=default;endArrow=classic;fillColor=#dae8fc;" edge="1" parent="1" source="5vC_YPOHCPxvv5NFeycX-30" target="5vC_YPOHCPxvv5NFeycX-46">
          <mxGeometry relative="1" as="geometry">
            <mxPoint x="1000" y="1215" as="sourcePoint" />
          </mxGeometry>
        </mxCell>
        <mxCell id="5vC_YPOHCPxvv5NFeycX-42" style="edgeStyle=none;shape=connector;rounded=0;orthogonalLoop=1;jettySize=auto;html=1;entryX=0;entryY=0.5;entryDx=0;entryDy=0;labelBackgroundColor=default;strokeColor=#6c8ebf;fontFamily=Helvetica;fontSize=10;fontColor=default;endArrow=classic;fillColor=#dae8fc;" edge="1" parent="1" target="5vC_YPOHCPxvv5NFeycX-45">
          <mxGeometry relative="1" as="geometry">
            <mxPoint x="890" y="1215" as="sourcePoint" />
          </mxGeometry>
        </mxCell>
        <mxCell id="5vC_YPOHCPxvv5NFeycX-44" value="Worker Thread&lt;br&gt;&amp;nbsp;&amp;nbsp;" style="rounded=1;whiteSpace=wrap;html=1;fillColor=#dae8fc;strokeColor=#6c8ebf;strokeWidth=0.5;fontSize=10;" vertex="1" parent="1">
          <mxGeometry x="1060" y="1160" width="90" height="30" as="geometry" />
        </mxCell>
        <mxCell id="5vC_YPOHCPxvv5NFeycX-45" value="Worker Thread&lt;br&gt;&amp;nbsp;" style="rounded=1;whiteSpace=wrap;html=1;fillColor=#dae8fc;strokeColor=#6c8ebf;strokeWidth=0.5;fontSize=10;" vertex="1" parent="1">
          <mxGeometry x="1060" y="1240" width="90" height="30" as="geometry" />
        </mxCell>
        <mxCell id="5vC_YPOHCPxvv5NFeycX-46" value="Worker Thread&lt;br&gt;&amp;nbsp;" style="rounded=1;whiteSpace=wrap;html=1;fillColor=#dae8fc;strokeColor=#6c8ebf;strokeWidth=0.5;fontSize=10;" vertex="1" parent="1">
          <mxGeometry x="1060" y="1200" width="90" height="30" as="geometry" />
        </mxCell>
        <mxCell id="5vC_YPOHCPxvv5NFeycX-47" value="接收任务" style="text;html=1;align=center;verticalAlign=middle;resizable=0;points=[];autosize=1;strokeColor=none;fillColor=none;fontSize=11;fontFamily=Helvetica;fontColor=default;" vertex="1" parent="1">
          <mxGeometry x="803" y="1170" width="70" height="30" as="geometry" />
        </mxCell>
        <mxCell id="5vC_YPOHCPxvv5NFeycX-49" value="处理任务" style="text;html=1;align=center;verticalAlign=middle;resizable=0;points=[];autosize=1;strokeColor=none;fillColor=none;fontSize=11;fontFamily=Helvetica;fontColor=default;" vertex="1" parent="1">
          <mxGeometry x="1070" y="1120" width="70" height="30" as="geometry" />
        </mxCell>
        <mxCell id="5vC_YPOHCPxvv5NFeycX-50" value="提交任务" style="text;html=1;align=center;verticalAlign=middle;resizable=0;points=[];autosize=1;strokeColor=none;fillColor=none;fontSize=11;fontFamily=Helvetica;fontColor=default;" vertex="1" parent="1">
          <mxGeometry x="545" y="1130" width="70" height="30" as="geometry" />
        </mxCell>
        <mxCell id="5vC_YPOHCPxvv5NFeycX-51" value="" style="rounded=0;whiteSpace=wrap;html=1;fillColor=#f8cecc;strokeColor=#b85450;strokeWidth=0.5;fontSize=10;" vertex="1" parent="1">
          <mxGeometry x="1076" y="1257" width="10" height="10" as="geometry" />
        </mxCell>
        <mxCell id="5vC_YPOHCPxvv5NFeycX-54" value="" style="rounded=0;whiteSpace=wrap;html=1;fillColor=#f8cecc;strokeColor=#b85450;strokeWidth=0.5;fontSize=10;" vertex="1" parent="1">
          <mxGeometry x="1086" y="1257" width="10" height="10" as="geometry" />
        </mxCell>
        <mxCell id="5vC_YPOHCPxvv5NFeycX-55" value="" style="rounded=0;whiteSpace=wrap;html=1;fillColor=#f8cecc;strokeColor=#b85450;strokeWidth=0.5;fontSize=10;" vertex="1" parent="1">
          <mxGeometry x="1096" y="1257" width="10" height="10" as="geometry" />
        </mxCell>
        <mxCell id="5vC_YPOHCPxvv5NFeycX-56" value="" style="rounded=0;whiteSpace=wrap;html=1;fillColor=#f8cecc;strokeColor=#b85450;strokeWidth=0.5;fontSize=10;" vertex="1" parent="1">
          <mxGeometry x="1106" y="1257" width="10" height="10" as="geometry" />
        </mxCell>
        <mxCell id="5vC_YPOHCPxvv5NFeycX-58" value="" style="rounded=0;whiteSpace=wrap;html=1;fillColor=#f8cecc;strokeColor=#b85450;strokeWidth=0.5;fontSize=10;" vertex="1" parent="1">
          <mxGeometry x="1116" y="1257" width="10" height="10" as="geometry" />
        </mxCell>
        <mxCell id="5vC_YPOHCPxvv5NFeycX-59" value="" style="rounded=0;whiteSpace=wrap;html=1;fillColor=#f8cecc;strokeColor=#b85450;strokeWidth=0.5;fontSize=10;" vertex="1" parent="1">
          <mxGeometry x="1126" y="1257" width="10" height="10" as="geometry" />
        </mxCell>
        <mxCell id="5vC_YPOHCPxvv5NFeycX-62" value="" style="rounded=0;whiteSpace=wrap;html=1;fillColor=#f8cecc;strokeColor=#b85450;strokeWidth=0.5;fontSize=10;" vertex="1" parent="1">
          <mxGeometry x="1076" y="1217" width="10" height="10" as="geometry" />
        </mxCell>
        <mxCell id="5vC_YPOHCPxvv5NFeycX-63" value="" style="rounded=0;whiteSpace=wrap;html=1;fillColor=#f8cecc;strokeColor=#b85450;strokeWidth=0.5;fontSize=10;" vertex="1" parent="1">
          <mxGeometry x="1086" y="1217" width="10" height="10" as="geometry" />
        </mxCell>
        <mxCell id="5vC_YPOHCPxvv5NFeycX-64" value="" style="rounded=0;whiteSpace=wrap;html=1;fillColor=#f8cecc;strokeColor=#b85450;strokeWidth=0.5;fontSize=10;" vertex="1" parent="1">
          <mxGeometry x="1096" y="1217" width="10" height="10" as="geometry" />
        </mxCell>
        <mxCell id="5vC_YPOHCPxvv5NFeycX-65" value="" style="rounded=0;whiteSpace=wrap;html=1;fillColor=#f8cecc;strokeColor=#b85450;strokeWidth=0.5;fontSize=10;" vertex="1" parent="1">
          <mxGeometry x="1106" y="1217" width="10" height="10" as="geometry" />
        </mxCell>
        <mxCell id="5vC_YPOHCPxvv5NFeycX-66" value="" style="rounded=0;whiteSpace=wrap;html=1;fillColor=#f8cecc;strokeColor=#b85450;strokeWidth=0.5;fontSize=10;" vertex="1" parent="1">
          <mxGeometry x="1116" y="1217" width="10" height="10" as="geometry" />
        </mxCell>
        <mxCell id="5vC_YPOHCPxvv5NFeycX-67" value="" style="rounded=0;whiteSpace=wrap;html=1;fillColor=#f8cecc;strokeColor=#b85450;strokeWidth=0.5;fontSize=10;" vertex="1" parent="1">
          <mxGeometry x="1126" y="1217" width="10" height="10" as="geometry" />
        </mxCell>
        <mxCell id="5vC_YPOHCPxvv5NFeycX-69" value="" style="rounded=0;whiteSpace=wrap;html=1;fillColor=#f8cecc;strokeColor=#b85450;strokeWidth=0.5;fontSize=10;" vertex="1" parent="1">
          <mxGeometry x="1076" y="1177" width="10" height="10" as="geometry" />
        </mxCell>
        <mxCell id="5vC_YPOHCPxvv5NFeycX-70" value="" style="rounded=0;whiteSpace=wrap;html=1;fillColor=#f8cecc;strokeColor=#b85450;strokeWidth=0.5;fontSize=10;" vertex="1" parent="1">
          <mxGeometry x="1086" y="1177" width="10" height="10" as="geometry" />
        </mxCell>
        <mxCell id="5vC_YPOHCPxvv5NFeycX-71" value="" style="rounded=0;whiteSpace=wrap;html=1;fillColor=#f8cecc;strokeColor=#b85450;strokeWidth=0.5;fontSize=10;" vertex="1" parent="1">
          <mxGeometry x="1096" y="1177" width="10" height="10" as="geometry" />
        </mxCell>
        <mxCell id="5vC_YPOHCPxvv5NFeycX-72" value="" style="rounded=0;whiteSpace=wrap;html=1;fillColor=#f8cecc;strokeColor=#b85450;strokeWidth=0.5;fontSize=10;" vertex="1" parent="1">
          <mxGeometry x="1106" y="1177" width="10" height="10" as="geometry" />
        </mxCell>
        <mxCell id="5vC_YPOHCPxvv5NFeycX-73" value="" style="rounded=0;whiteSpace=wrap;html=1;fillColor=#f8cecc;strokeColor=#b85450;strokeWidth=0.5;fontSize=10;" vertex="1" parent="1">
          <mxGeometry x="1116" y="1177" width="10" height="10" as="geometry" />
        </mxCell>
        <mxCell id="5vC_YPOHCPxvv5NFeycX-74" value="" style="rounded=0;whiteSpace=wrap;html=1;fillColor=#f8cecc;strokeColor=#b85450;strokeWidth=0.5;fontSize=10;" vertex="1" parent="1">
          <mxGeometry x="1126" y="1177" width="10" height="10" as="geometry" />
        </mxCell>
      </root>
    </mxGraphModel>
  </diagram>
  <diagram id="93yxpEKvvbTmGQWpPgJ2" name="Future">
    <mxGraphModel dx="984" dy="659" grid="1" gridSize="10" guides="1" tooltips="1" connect="1" arrows="1" fold="1" page="1" pageScale="1" pageWidth="3300" pageHeight="4681" math="0" shadow="0">
      <root>
        <mxCell id="0" />
        <mxCell id="1" parent="0" />
        <mxCell id="I0wXp9cpiTJti_YRYfrO-3" style="edgeStyle=orthogonalEdgeStyle;shape=connector;rounded=0;orthogonalLoop=1;jettySize=auto;html=1;exitX=0.5;exitY=0;exitDx=0;exitDy=0;entryX=0.5;entryY=1;entryDx=0;entryDy=0;labelBackgroundColor=default;strokeColor=#457B9D;fontFamily=Helvetica;fontSize=11;fontColor=default;endArrow=block;endFill=0;" edge="1" parent="1" source="I0wXp9cpiTJti_YRYfrO-1" target="I0wXp9cpiTJti_YRYfrO-2">
          <mxGeometry relative="1" as="geometry" />
        </mxCell>
        <mxCell id="I0wXp9cpiTJti_YRYfrO-1" value="&lt;p style=&quot;margin: 4px 0px 0px; font-size: 10px;&quot;&gt;&lt;span style=&quot;font-size: 10px;&quot;&gt;Future&amp;lt;V&amp;gt;&lt;/span&gt;&lt;/p&gt;" style="verticalAlign=middle;align=center;overflow=fill;fontSize=10;fontFamily=Helvetica;html=1;fillColor=#d5e8d4;strokeColor=#82b366;fontStyle=0" vertex="1" parent="1">
          <mxGeometry x="400" y="180" width="60" height="20" as="geometry" />
        </mxCell>
        <mxCell id="I0wXp9cpiTJti_YRYfrO-2" value="&lt;p style=&quot;margin: 4px 0px 0px; font-size: 10px;&quot;&gt;&lt;span style=&quot;font-size: 10px;&quot;&gt;java.util.concurrent.Future&amp;lt;V&amp;gt;&lt;/span&gt;&lt;/p&gt;" style="verticalAlign=middle;align=center;overflow=fill;fontSize=10;fontFamily=Helvetica;html=1;fillColor=#d5e8d4;strokeColor=#82b366;fontStyle=0" vertex="1" parent="1">
          <mxGeometry x="355" y="130" width="150" height="20" as="geometry" />
        </mxCell>
        <mxCell id="I0wXp9cpiTJti_YRYfrO-5" style="edgeStyle=orthogonalEdgeStyle;shape=connector;rounded=0;orthogonalLoop=1;jettySize=auto;html=1;exitX=0.5;exitY=0;exitDx=0;exitDy=0;entryX=0.5;entryY=1;entryDx=0;entryDy=0;labelBackgroundColor=default;strokeColor=#457B9D;fontFamily=Helvetica;fontSize=11;fontColor=default;endArrow=block;endFill=0;" edge="1" parent="1" source="I0wXp9cpiTJti_YRYfrO-4" target="I0wXp9cpiTJti_YRYfrO-1">
          <mxGeometry relative="1" as="geometry" />
        </mxCell>
        <mxCell id="I0wXp9cpiTJti_YRYfrO-4" value="&lt;p style=&quot;margin: 4px 0px 0px; font-size: 10px;&quot;&gt;&lt;span style=&quot;font-size: 10px;&quot;&gt;Promise&amp;lt;Void&amp;gt;&lt;/span&gt;&lt;/p&gt;" style="verticalAlign=middle;align=center;overflow=fill;fontSize=10;fontFamily=Helvetica;html=1;fillColor=#d5e8d4;strokeColor=#82b366;fontStyle=0" vertex="1" parent="1">
          <mxGeometry x="390" y="230" width="80" height="20" as="geometry" />
        </mxCell>
        <mxCell id="I0wXp9cpiTJti_YRYfrO-7" style="edgeStyle=orthogonalEdgeStyle;shape=connector;rounded=0;orthogonalLoop=1;jettySize=auto;html=1;exitX=0.5;exitY=0;exitDx=0;exitDy=0;entryX=0.5;entryY=1;entryDx=0;entryDy=0;labelBackgroundColor=default;strokeColor=#457B9D;fontFamily=Helvetica;fontSize=11;fontColor=default;endArrow=block;endFill=0;dashed=1;" edge="1" parent="1" source="I0wXp9cpiTJti_YRYfrO-6" target="I0wXp9cpiTJti_YRYfrO-4">
          <mxGeometry relative="1" as="geometry" />
        </mxCell>
        <mxCell id="QvvHMWOwSCS5BxmC1eqn-6" style="edgeStyle=orthogonalEdgeStyle;shape=connector;rounded=0;orthogonalLoop=1;jettySize=auto;html=1;exitX=0.75;exitY=0;exitDx=0;exitDy=0;entryX=0.25;entryY=1;entryDx=0;entryDy=0;labelBackgroundColor=default;strokeColor=#457B9D;fontFamily=Helvetica;fontSize=11;fontColor=default;endArrow=block;endFill=0;" edge="1" parent="1" source="I0wXp9cpiTJti_YRYfrO-6" target="QvvHMWOwSCS5BxmC1eqn-5">
          <mxGeometry relative="1" as="geometry">
            <Array as="points">
              <mxPoint x="458" y="270" />
              <mxPoint x="575" y="270" />
            </Array>
          </mxGeometry>
        </mxCell>
        <mxCell id="QvvHMWOwSCS5BxmC1eqn-13" style="edgeStyle=orthogonalEdgeStyle;shape=connector;rounded=0;orthogonalLoop=1;jettySize=auto;html=1;exitX=0.345;exitY=0.05;exitDx=0;exitDy=0;entryX=0.5;entryY=1;entryDx=0;entryDy=0;labelBackgroundColor=default;strokeColor=#457B9D;fontFamily=Helvetica;fontSize=11;fontColor=default;endArrow=open;endFill=0;exitPerimeter=0;" edge="1" parent="1" source="I0wXp9cpiTJti_YRYfrO-6" target="QvvHMWOwSCS5BxmC1eqn-1">
          <mxGeometry relative="1" as="geometry">
            <Array as="points">
              <mxPoint x="390" y="291" />
              <mxPoint x="390" y="280" />
              <mxPoint x="160" y="280" />
            </Array>
          </mxGeometry>
        </mxCell>
        <mxCell id="QvvHMWOwSCS5BxmC1eqn-14" style="edgeStyle=orthogonalEdgeStyle;shape=connector;rounded=0;orthogonalLoop=1;jettySize=auto;html=1;exitX=0.25;exitY=0;exitDx=0;exitDy=0;entryX=0.5;entryY=1;entryDx=0;entryDy=0;labelBackgroundColor=default;strokeColor=#457B9D;fontFamily=Helvetica;fontSize=11;fontColor=default;endArrow=none;endFill=0;startArrow=diamondThin;startFill=0;startSize=10;" edge="1" parent="1" source="I0wXp9cpiTJti_YRYfrO-6" target="I0wXp9cpiTJti_YRYfrO-11">
          <mxGeometry relative="1" as="geometry" />
        </mxCell>
        <mxCell id="I0wXp9cpiTJti_YRYfrO-6" value="&lt;p style=&quot;margin: 4px 0px 0px; font-size: 10px;&quot;&gt;&lt;span style=&quot;font-size: 10px;&quot;&gt;DefaultPromise&amp;lt;Void&amp;gt;&lt;/span&gt;&lt;/p&gt;" style="verticalAlign=middle;align=center;overflow=fill;fontSize=10;fontFamily=Helvetica;html=1;fillColor=#dae8fc;strokeColor=#6c8ebf;fontStyle=0" vertex="1" parent="1">
          <mxGeometry x="375" y="290" width="110" height="20" as="geometry" />
        </mxCell>
        <mxCell id="I0wXp9cpiTJti_YRYfrO-9" style="edgeStyle=orthogonalEdgeStyle;shape=connector;rounded=0;orthogonalLoop=1;jettySize=auto;html=1;exitX=0.5;exitY=0;exitDx=0;exitDy=0;entryX=0.5;entryY=1;entryDx=0;entryDy=0;labelBackgroundColor=default;strokeColor=#457B9D;fontFamily=Helvetica;fontSize=11;fontColor=default;endArrow=block;endFill=0;" edge="1" parent="1" source="I0wXp9cpiTJti_YRYfrO-8" target="I0wXp9cpiTJti_YRYfrO-6">
          <mxGeometry relative="1" as="geometry" />
        </mxCell>
        <mxCell id="QvvHMWOwSCS5BxmC1eqn-16" style="edgeStyle=orthogonalEdgeStyle;shape=connector;rounded=0;orthogonalLoop=1;jettySize=auto;html=1;exitX=0.25;exitY=0;exitDx=0;exitDy=0;entryX=0.5;entryY=1;entryDx=0;entryDy=0;labelBackgroundColor=default;strokeColor=#457B9D;fontFamily=Helvetica;fontSize=11;fontColor=default;endArrow=block;endFill=0;dashed=1;" edge="1" parent="1" source="I0wXp9cpiTJti_YRYfrO-8" target="QvvHMWOwSCS5BxmC1eqn-15">
          <mxGeometry relative="1" as="geometry">
            <Array as="points">
              <mxPoint x="408" y="330" />
              <mxPoint x="220" y="330" />
            </Array>
          </mxGeometry>
        </mxCell>
        <mxCell id="I0wXp9cpiTJti_YRYfrO-8" value="&lt;p style=&quot;margin: 4px 0px 0px; font-size: 10px;&quot;&gt;&lt;span style=&quot;font-size: 10px;&quot;&gt;PromiseTask&amp;lt;V&amp;gt;&lt;/span&gt;&lt;/p&gt;" style="verticalAlign=middle;align=center;overflow=fill;fontSize=10;fontFamily=Helvetica;html=1;fillColor=#dae8fc;strokeColor=#6c8ebf;fontStyle=0" vertex="1" parent="1">
          <mxGeometry x="385" y="340" width="90" height="20" as="geometry" />
        </mxCell>
        <mxCell id="I0wXp9cpiTJti_YRYfrO-10" value="&lt;p style=&quot;margin: 4px 0px 0px; font-size: 10px;&quot;&gt;&lt;span style=&quot;font-size: 10px;&quot;&gt;java.util.EventListener&lt;/span&gt;&lt;/p&gt;" style="verticalAlign=middle;align=center;overflow=fill;fontSize=10;fontFamily=Helvetica;html=1;fillColor=#d5e8d4;strokeColor=#82b366;fontStyle=0" vertex="1" parent="1">
          <mxGeometry x="220" y="130" width="120" height="20" as="geometry" />
        </mxCell>
        <mxCell id="QvvHMWOwSCS5BxmC1eqn-11" style="edgeStyle=orthogonalEdgeStyle;shape=connector;rounded=0;orthogonalLoop=1;jettySize=auto;html=1;exitX=0.5;exitY=0;exitDx=0;exitDy=0;entryX=0.5;entryY=1;entryDx=0;entryDy=0;labelBackgroundColor=default;strokeColor=#457B9D;fontFamily=Helvetica;fontSize=11;fontColor=default;endArrow=block;endFill=0;" edge="1" parent="1" source="I0wXp9cpiTJti_YRYfrO-11" target="I0wXp9cpiTJti_YRYfrO-10">
          <mxGeometry relative="1" as="geometry" />
        </mxCell>
        <mxCell id="QvvHMWOwSCS5BxmC1eqn-12" style="edgeStyle=orthogonalEdgeStyle;shape=connector;rounded=0;orthogonalLoop=1;jettySize=auto;html=1;exitX=0.75;exitY=0;exitDx=0;exitDy=0;entryX=0.25;entryY=1;entryDx=0;entryDy=0;labelBackgroundColor=default;strokeColor=#457B9D;fontFamily=Helvetica;fontSize=11;fontColor=default;endArrow=open;endFill=0;dashed=1;" edge="1" parent="1" source="I0wXp9cpiTJti_YRYfrO-11" target="I0wXp9cpiTJti_YRYfrO-1">
          <mxGeometry relative="1" as="geometry">
            <Array as="points">
              <mxPoint x="310" y="220" />
              <mxPoint x="415" y="220" />
            </Array>
          </mxGeometry>
        </mxCell>
        <mxCell id="I0wXp9cpiTJti_YRYfrO-11" value="&lt;p style=&quot;margin: 4px 0px 0px; font-size: 10px;&quot;&gt;&lt;span style=&quot;font-size: 10px;&quot;&gt;GenericFutureListener&lt;/span&gt;&lt;/p&gt;" style="verticalAlign=middle;align=center;overflow=fill;fontSize=10;fontFamily=Helvetica;html=1;fillColor=#d5e8d4;strokeColor=#82b366;fontStyle=0" vertex="1" parent="1">
          <mxGeometry x="220" y="230" width="120" height="20" as="geometry" />
        </mxCell>
        <mxCell id="QvvHMWOwSCS5BxmC1eqn-1" value="&lt;p style=&quot;margin: 4px 0px 0px; font-size: 10px;&quot;&gt;&lt;span style=&quot;font-size: 10px;&quot;&gt;EventExecutor&lt;/span&gt;&lt;/p&gt;" style="verticalAlign=middle;align=center;overflow=fill;fontSize=10;fontFamily=Helvetica;html=1;fillColor=#d5e8d4;strokeColor=#82b366;fontStyle=0" vertex="1" parent="1">
          <mxGeometry x="120" y="230" width="80" height="20" as="geometry" />
        </mxCell>
        <mxCell id="QvvHMWOwSCS5BxmC1eqn-8" style="edgeStyle=orthogonalEdgeStyle;shape=connector;rounded=0;orthogonalLoop=1;jettySize=auto;html=1;exitX=0.5;exitY=0;exitDx=0;exitDy=0;entryX=0.25;entryY=1;entryDx=0;entryDy=0;labelBackgroundColor=default;strokeColor=#457B9D;fontFamily=Helvetica;fontSize=11;fontColor=default;endArrow=block;endFill=0;" edge="1" parent="1" source="QvvHMWOwSCS5BxmC1eqn-2" target="QvvHMWOwSCS5BxmC1eqn-4">
          <mxGeometry relative="1" as="geometry">
            <Array as="points">
              <mxPoint x="545" y="330" />
              <mxPoint x="575" y="330" />
            </Array>
          </mxGeometry>
        </mxCell>
        <mxCell id="QvvHMWOwSCS5BxmC1eqn-2" value="&lt;p style=&quot;margin: 4px 0px 0px; font-size: 10px;&quot;&gt;&lt;span style=&quot;font-size: 10px;&quot;&gt;FailedFuture&amp;lt;V&amp;gt;&lt;/span&gt;&lt;/p&gt;" style="verticalAlign=middle;align=center;overflow=fill;fontSize=10;fontFamily=Helvetica;html=1;fillColor=#dae8fc;strokeColor=#6c8ebf;fontStyle=0" vertex="1" parent="1">
          <mxGeometry x="500" y="340" width="90" height="20" as="geometry" />
        </mxCell>
        <mxCell id="QvvHMWOwSCS5BxmC1eqn-9" style="edgeStyle=orthogonalEdgeStyle;shape=connector;rounded=0;orthogonalLoop=1;jettySize=auto;html=1;exitX=0.5;exitY=0;exitDx=0;exitDy=0;entryX=0.75;entryY=1;entryDx=0;entryDy=0;labelBackgroundColor=default;strokeColor=#457B9D;fontFamily=Helvetica;fontSize=11;fontColor=default;endArrow=block;endFill=0;" edge="1" parent="1" source="QvvHMWOwSCS5BxmC1eqn-3" target="QvvHMWOwSCS5BxmC1eqn-4">
          <mxGeometry relative="1" as="geometry">
            <Array as="points">
              <mxPoint x="675" y="330" />
              <mxPoint x="625" y="330" />
            </Array>
          </mxGeometry>
        </mxCell>
        <mxCell id="QvvHMWOwSCS5BxmC1eqn-3" value="&lt;p style=&quot;margin: 4px 0px 0px; font-size: 10px;&quot;&gt;&lt;span style=&quot;font-size: 10px;&quot;&gt;SucceededFuture&amp;lt;V&amp;gt;&lt;/span&gt;&lt;/p&gt;" style="verticalAlign=middle;align=center;overflow=fill;fontSize=10;fontFamily=Helvetica;html=1;fillColor=#dae8fc;strokeColor=#6c8ebf;fontStyle=0" vertex="1" parent="1">
          <mxGeometry x="620" y="340" width="110" height="20" as="geometry" />
        </mxCell>
        <mxCell id="QvvHMWOwSCS5BxmC1eqn-7" style="edgeStyle=orthogonalEdgeStyle;shape=connector;rounded=0;orthogonalLoop=1;jettySize=auto;html=1;exitX=0.5;exitY=0;exitDx=0;exitDy=0;entryX=0.5;entryY=1;entryDx=0;entryDy=0;labelBackgroundColor=default;strokeColor=#457B9D;fontFamily=Helvetica;fontSize=11;fontColor=default;endArrow=block;endFill=0;" edge="1" parent="1" source="QvvHMWOwSCS5BxmC1eqn-4" target="QvvHMWOwSCS5BxmC1eqn-5">
          <mxGeometry relative="1" as="geometry" />
        </mxCell>
        <mxCell id="QvvHMWOwSCS5BxmC1eqn-4" value="&lt;p style=&quot;margin: 4px 0px 0px; font-size: 10px;&quot;&gt;&lt;span style=&quot;font-size: 10px;&quot;&gt;CompleteFuture&amp;lt;V&amp;gt;&lt;/span&gt;&lt;/p&gt;" style="verticalAlign=middle;align=center;overflow=fill;fontSize=10;fontFamily=Helvetica;html=1;fillColor=#dae8fc;strokeColor=#6c8ebf;fontStyle=0" vertex="1" parent="1">
          <mxGeometry x="550" y="290" width="100" height="20" as="geometry" />
        </mxCell>
        <mxCell id="QvvHMWOwSCS5BxmC1eqn-10" style="edgeStyle=orthogonalEdgeStyle;shape=connector;rounded=0;orthogonalLoop=1;jettySize=auto;html=1;exitX=0.5;exitY=0;exitDx=0;exitDy=0;entryX=0.75;entryY=1;entryDx=0;entryDy=0;labelBackgroundColor=default;strokeColor=#457B9D;fontFamily=Helvetica;fontSize=11;fontColor=default;endArrow=block;endFill=0;dashed=1;" edge="1" parent="1" source="QvvHMWOwSCS5BxmC1eqn-5" target="I0wXp9cpiTJti_YRYfrO-1">
          <mxGeometry relative="1" as="geometry">
            <Array as="points">
              <mxPoint x="600" y="220" />
              <mxPoint x="445" y="220" />
            </Array>
          </mxGeometry>
        </mxCell>
        <mxCell id="QvvHMWOwSCS5BxmC1eqn-5" value="&lt;p style=&quot;margin: 4px 0px 0px; font-size: 10px;&quot;&gt;&lt;span style=&quot;font-size: 10px;&quot;&gt;AbstractFuture&amp;lt;V&amp;gt;&lt;/span&gt;&lt;/p&gt;" style="verticalAlign=middle;align=center;overflow=fill;fontSize=10;fontFamily=Helvetica;html=1;fillColor=#dae8fc;strokeColor=#6c8ebf;fontStyle=0" vertex="1" parent="1">
          <mxGeometry x="550" y="230" width="100" height="20" as="geometry" />
        </mxCell>
        <mxCell id="QvvHMWOwSCS5BxmC1eqn-15" value="&lt;p style=&quot;margin: 4px 0px 0px; font-size: 10px;&quot;&gt;&lt;span style=&quot;font-size: 10px;&quot;&gt;RunnableFuture&amp;lt;V&amp;gt;&lt;/span&gt;&lt;/p&gt;" style="verticalAlign=middle;align=center;overflow=fill;fontSize=10;fontFamily=Helvetica;html=1;fillColor=#d5e8d4;strokeColor=#82b366;fontStyle=0" vertex="1" parent="1">
          <mxGeometry x="170" y="290" width="100" height="20" as="geometry" />
        </mxCell>
      </root>
    </mxGraphModel>
  </diagram>
  <diagram id="nd_CkkGGFaC4qcde1Lg1" name="EventLoop">
    <mxGraphModel dx="984" dy="659" grid="1" gridSize="10" guides="1" tooltips="1" connect="1" arrows="1" fold="1" page="1" pageScale="1" pageWidth="3300" pageHeight="4681" math="0" shadow="0">
      <root>
        <mxCell id="0" />
        <mxCell id="1" parent="0" />
        <mxCell id="kyaT1zHS8UTDgt3mmqQ0-2" style="edgeStyle=orthogonalEdgeStyle;shape=connector;rounded=0;orthogonalLoop=1;jettySize=auto;html=1;exitX=0.5;exitY=0;exitDx=0;exitDy=0;entryX=0.5;entryY=1;entryDx=0;entryDy=0;labelBackgroundColor=default;strokeColor=#457B9D;fontFamily=Helvetica;fontSize=11;fontColor=default;endArrow=block;endFill=0;dashed=1;" parent="1" source="k654ppA_-rf9td8yrATv-1" target="kyaT1zHS8UTDgt3mmqQ0-1" edge="1">
          <mxGeometry relative="1" as="geometry" />
        </mxCell>
        <mxCell id="fE-iEd_A84LrjaKV1M42-11" style="edgeStyle=orthogonalEdgeStyle;shape=connector;rounded=0;orthogonalLoop=1;jettySize=auto;html=1;exitX=0;exitY=0.5;exitDx=0;exitDy=0;entryX=1;entryY=0.5;entryDx=0;entryDy=0;labelBackgroundColor=default;strokeColor=#457B9D;fontFamily=Helvetica;fontSize=11;fontColor=default;endArrow=none;endFill=0;startArrow=diamondThin;startFill=1;startSize=10;" parent="1" source="k654ppA_-rf9td8yrATv-1" target="2ZRaSpOf62nRL24ERahV-1" edge="1">
          <mxGeometry relative="1" as="geometry" />
        </mxCell>
        <mxCell id="k654ppA_-rf9td8yrATv-1" value="&lt;p style=&quot;margin: 4px 0px 0px; font-size: 10px;&quot;&gt;&lt;span style=&quot;font-size: 10px;&quot;&gt;AbstractChannel&lt;/span&gt;&lt;/p&gt;" style="verticalAlign=middle;align=center;overflow=fill;fontSize=10;fontFamily=Helvetica;html=1;fillColor=#dae8fc;strokeColor=#6c8ebf;fontStyle=0" parent="1" vertex="1">
          <mxGeometry x="410" y="430" width="90" height="20" as="geometry" />
        </mxCell>
        <mxCell id="2ZRaSpOf62nRL24ERahV-1" value="&lt;p style=&quot;margin: 4px 0px 0px; font-size: 10px;&quot;&gt;&lt;span style=&quot;font-size: 10px;&quot;&gt;EventLoop&lt;/span&gt;&lt;/p&gt;" style="verticalAlign=middle;align=center;overflow=fill;fontSize=10;fontFamily=Helvetica;html=1;fillColor=#d5e8d4;strokeColor=#82b366;fontStyle=0" parent="1" vertex="1">
          <mxGeometry x="310" y="430" width="60" height="20" as="geometry" />
        </mxCell>
        <mxCell id="NUEqJUQgsUGUoc0MHQbx-4" style="edgeStyle=orthogonalEdgeStyle;shape=connector;rounded=0;orthogonalLoop=1;jettySize=auto;html=1;exitX=0.5;exitY=0;exitDx=0;exitDy=0;labelBackgroundColor=default;strokeColor=#457B9D;fontFamily=Helvetica;fontSize=11;fontColor=default;endArrow=block;endFill=0;dashed=1;" parent="1" source="0vWY3BdQzaX0_Vq_vBBx-1" edge="1">
          <mxGeometry relative="1" as="geometry">
            <mxPoint x="340" y="450" as="targetPoint" />
            <Array as="points">
              <mxPoint x="340" y="460" />
              <mxPoint x="340" y="460" />
            </Array>
          </mxGeometry>
        </mxCell>
        <mxCell id="0vWY3BdQzaX0_Vq_vBBx-1" value="&lt;p style=&quot;margin: 4px 0px 0px; font-size: 10px;&quot;&gt;&lt;span style=&quot;font-size: 10px;&quot;&gt;SingleThreadEventLoop&lt;/span&gt;&lt;/p&gt;" style="verticalAlign=middle;align=center;overflow=fill;fontSize=10;fontFamily=Helvetica;html=1;fillColor=#dae8fc;strokeColor=#6c8ebf;fontStyle=0" parent="1" vertex="1">
          <mxGeometry x="280" y="480" width="120" height="20" as="geometry" />
        </mxCell>
        <mxCell id="NUEqJUQgsUGUoc0MHQbx-5" style="edgeStyle=orthogonalEdgeStyle;shape=connector;rounded=0;orthogonalLoop=1;jettySize=auto;html=1;exitX=0.5;exitY=0;exitDx=0;exitDy=0;entryX=0.5;entryY=1;entryDx=0;entryDy=0;labelBackgroundColor=default;strokeColor=#457B9D;fontFamily=Helvetica;fontSize=11;fontColor=default;endArrow=block;endFill=0;" parent="1" source="NUEqJUQgsUGUoc0MHQbx-1" target="0vWY3BdQzaX0_Vq_vBBx-1" edge="1">
          <mxGeometry relative="1" as="geometry" />
        </mxCell>
        <mxCell id="NUEqJUQgsUGUoc0MHQbx-7" style="edgeStyle=orthogonalEdgeStyle;shape=connector;rounded=0;orthogonalLoop=1;jettySize=auto;html=1;exitX=0.25;exitY=0;exitDx=0;exitDy=0;entryX=0.5;entryY=1;entryDx=0;entryDy=0;labelBackgroundColor=default;strokeColor=#457B9D;fontFamily=Helvetica;fontSize=11;fontColor=default;endArrow=open;endFill=0;" parent="1" source="NUEqJUQgsUGUoc0MHQbx-1" target="NUEqJUQgsUGUoc0MHQbx-2" edge="1">
          <mxGeometry relative="1" as="geometry">
            <Array as="points">
              <mxPoint x="320" y="520" />
              <mxPoint x="240" y="520" />
            </Array>
          </mxGeometry>
        </mxCell>
        <mxCell id="NUEqJUQgsUGUoc0MHQbx-1" value="&lt;p style=&quot;margin: 4px 0px 0px; font-size: 10px;&quot;&gt;&lt;span style=&quot;font-size: 10px;&quot;&gt;NioEventLoop&lt;/span&gt;&lt;/p&gt;" style="verticalAlign=middle;align=center;overflow=fill;fontSize=10;fontFamily=Helvetica;html=1;fillColor=#dae8fc;strokeColor=#6c8ebf;fontStyle=0" parent="1" vertex="1">
          <mxGeometry x="300" y="530" width="80" height="20" as="geometry" />
        </mxCell>
        <mxCell id="NUEqJUQgsUGUoc0MHQbx-2" value="&lt;p style=&quot;margin: 4px 0px 0px; font-size: 10px;&quot;&gt;&lt;span style=&quot;font-size: 10px;&quot;&gt;Selector&lt;/span&gt;&lt;/p&gt;" style="verticalAlign=middle;align=center;overflow=fill;fontSize=10;fontFamily=Helvetica;html=1;fillColor=#dae8fc;strokeColor=#6c8ebf;fontStyle=0" parent="1" vertex="1">
          <mxGeometry x="210" y="480" width="60" height="20" as="geometry" />
        </mxCell>
        <mxCell id="kyaT1zHS8UTDgt3mmqQ0-1" value="&lt;p style=&quot;margin: 4px 0px 0px; font-size: 10px;&quot;&gt;&lt;span style=&quot;font-size: 10px;&quot;&gt;Channel&lt;/span&gt;&lt;/p&gt;" style="verticalAlign=middle;align=center;overflow=fill;fontSize=10;fontFamily=Helvetica;html=1;fillColor=#d5e8d4;strokeColor=#82b366;fontStyle=0" parent="1" vertex="1">
          <mxGeometry x="425" y="380" width="60" height="20" as="geometry" />
        </mxCell>
        <mxCell id="NrX3tgbY3HOVmVKMcMGR-2" style="edgeStyle=orthogonalEdgeStyle;shape=connector;rounded=0;orthogonalLoop=1;jettySize=auto;html=1;exitX=0.5;exitY=0;exitDx=0;exitDy=0;entryX=0.5;entryY=1;entryDx=0;entryDy=0;labelBackgroundColor=default;strokeColor=#457B9D;fontFamily=Helvetica;fontSize=11;fontColor=default;endArrow=block;endFill=0;" parent="1" source="kyaT1zHS8UTDgt3mmqQ0-3" target="NrX3tgbY3HOVmVKMcMGR-1" edge="1">
          <mxGeometry relative="1" as="geometry" />
        </mxCell>
        <mxCell id="fE-iEd_A84LrjaKV1M42-8" style="edgeStyle=orthogonalEdgeStyle;shape=connector;rounded=0;orthogonalLoop=1;jettySize=auto;html=1;exitX=0.75;exitY=0;exitDx=0;exitDy=0;entryX=0.5;entryY=1;entryDx=0;entryDy=0;labelBackgroundColor=default;strokeColor=#457B9D;fontFamily=Helvetica;fontSize=11;fontColor=default;endArrow=block;endFill=0;dashed=1;" parent="1" source="kyaT1zHS8UTDgt3mmqQ0-3" target="fE-iEd_A84LrjaKV1M42-5" edge="1">
          <mxGeometry relative="1" as="geometry">
            <Array as="points">
              <mxPoint x="620" y="367" />
              <mxPoint x="750" y="367" />
            </Array>
          </mxGeometry>
        </mxCell>
        <mxCell id="fE-iEd_A84LrjaKV1M42-10" style="edgeStyle=orthogonalEdgeStyle;shape=connector;rounded=0;orthogonalLoop=1;jettySize=auto;html=1;exitX=0.75;exitY=0;exitDx=0;exitDy=0;entryX=0.5;entryY=1;entryDx=0;entryDy=0;labelBackgroundColor=default;strokeColor=#457B9D;fontFamily=Helvetica;fontSize=11;fontColor=default;endArrow=block;endFill=0;dashed=1;" parent="1" source="kyaT1zHS8UTDgt3mmqQ0-3" target="fE-iEd_A84LrjaKV1M42-9" edge="1">
          <mxGeometry relative="1" as="geometry">
            <Array as="points">
              <mxPoint x="635" y="380" />
              <mxPoint x="635" y="372" />
              <mxPoint x="855" y="372" />
            </Array>
          </mxGeometry>
        </mxCell>
        <mxCell id="fE-iEd_A84LrjaKV1M42-12" style="edgeStyle=orthogonalEdgeStyle;shape=connector;rounded=0;orthogonalLoop=1;jettySize=auto;html=1;exitX=0;exitY=0.5;exitDx=0;exitDy=0;entryX=1;entryY=0.5;entryDx=0;entryDy=0;labelBackgroundColor=default;strokeColor=#457B9D;fontFamily=Helvetica;fontSize=11;fontColor=default;endArrow=none;endFill=0;startArrow=diamondThin;startFill=1;startSize=10;" parent="1" source="kyaT1zHS8UTDgt3mmqQ0-3" target="kyaT1zHS8UTDgt3mmqQ0-1" edge="1">
          <mxGeometry relative="1" as="geometry" />
        </mxCell>
        <mxCell id="kyaT1zHS8UTDgt3mmqQ0-3" value="&lt;p style=&quot;margin: 4px 0px 0px; font-size: 10px;&quot;&gt;&lt;span style=&quot;font-size: 10px;&quot;&gt;DefaultChannelPromise&lt;/span&gt;&lt;/p&gt;" style="verticalAlign=middle;align=center;overflow=fill;fontSize=10;fontFamily=Helvetica;html=1;fillColor=#dae8fc;strokeColor=#6c8ebf;fontStyle=0" parent="1" vertex="1">
          <mxGeometry x="530" y="380" width="120" height="20" as="geometry" />
        </mxCell>
        <mxCell id="IObFcVXA-6sclFxGAZZ3-2" style="edgeStyle=orthogonalEdgeStyle;shape=connector;rounded=0;orthogonalLoop=1;jettySize=auto;html=1;exitX=0.5;exitY=0;exitDx=0;exitDy=0;entryX=0.5;entryY=1;entryDx=0;entryDy=0;labelBackgroundColor=default;strokeColor=#457B9D;fontFamily=Helvetica;fontSize=11;fontColor=default;endArrow=block;endFill=0;" parent="1" source="NrX3tgbY3HOVmVKMcMGR-1" target="IObFcVXA-6sclFxGAZZ3-1" edge="1">
          <mxGeometry relative="1" as="geometry" />
        </mxCell>
        <mxCell id="fE-iEd_A84LrjaKV1M42-3" style="edgeStyle=orthogonalEdgeStyle;shape=connector;rounded=0;orthogonalLoop=1;jettySize=auto;html=1;exitX=0.75;exitY=0;exitDx=0;exitDy=0;entryX=0.25;entryY=1;entryDx=0;entryDy=0;labelBackgroundColor=default;strokeColor=#457B9D;fontFamily=Helvetica;fontSize=11;fontColor=default;endArrow=block;endFill=0;dashed=1;" parent="1" source="NrX3tgbY3HOVmVKMcMGR-1" target="fE-iEd_A84LrjaKV1M42-1" edge="1">
          <mxGeometry relative="1" as="geometry">
            <Array as="points">
              <mxPoint x="618" y="320" />
              <mxPoint x="680" y="320" />
            </Array>
          </mxGeometry>
        </mxCell>
        <mxCell id="NrX3tgbY3HOVmVKMcMGR-1" value="&lt;p style=&quot;margin: 4px 0px 0px; font-size: 10px;&quot;&gt;&lt;span style=&quot;font-size: 10px;&quot;&gt;DefaultPromise&amp;lt;Void&amp;gt;&lt;/span&gt;&lt;/p&gt;" style="verticalAlign=middle;align=center;overflow=fill;fontSize=10;fontFamily=Helvetica;html=1;fillColor=#dae8fc;strokeColor=#6c8ebf;fontStyle=0" parent="1" vertex="1">
          <mxGeometry x="535" y="330" width="110" height="20" as="geometry" />
        </mxCell>
        <mxCell id="bAr8lH01DP6dgl5ePGpr-2" style="edgeStyle=orthogonalEdgeStyle;shape=connector;rounded=0;orthogonalLoop=1;jettySize=auto;html=1;exitX=0.5;exitY=0;exitDx=0;exitDy=0;entryX=0.5;entryY=1;entryDx=0;entryDy=0;labelBackgroundColor=default;strokeColor=#457B9D;fontFamily=Helvetica;fontSize=11;fontColor=default;endArrow=block;endFill=0;" parent="1" source="IObFcVXA-6sclFxGAZZ3-1" target="bAr8lH01DP6dgl5ePGpr-1" edge="1">
          <mxGeometry relative="1" as="geometry" />
        </mxCell>
        <mxCell id="IObFcVXA-6sclFxGAZZ3-1" value="&lt;p style=&quot;margin: 4px 0px 0px; font-size: 10px;&quot;&gt;&lt;span style=&quot;font-size: 10px;&quot;&gt;AbstractFuture&amp;lt;V&amp;gt;&lt;/span&gt;&lt;/p&gt;" style="verticalAlign=middle;align=center;overflow=fill;fontSize=10;fontFamily=Helvetica;html=1;fillColor=#dae8fc;strokeColor=#6c8ebf;fontStyle=0" parent="1" vertex="1">
          <mxGeometry x="540" y="280" width="100" height="20" as="geometry" />
        </mxCell>
        <mxCell id="bAr8lH01DP6dgl5ePGpr-1" value="&lt;p style=&quot;margin: 4px 0px 0px; font-size: 10px;&quot;&gt;&lt;span style=&quot;font-size: 10px;&quot;&gt;Future&amp;lt;V&amp;gt;&lt;/span&gt;&lt;/p&gt;" style="verticalAlign=middle;align=center;overflow=fill;fontSize=10;fontFamily=Helvetica;html=1;fillColor=#d5e8d4;strokeColor=#82b366;fontStyle=0" parent="1" vertex="1">
          <mxGeometry x="560" y="230" width="60" height="20" as="geometry" />
        </mxCell>
        <mxCell id="fE-iEd_A84LrjaKV1M42-2" style="edgeStyle=orthogonalEdgeStyle;shape=connector;rounded=0;orthogonalLoop=1;jettySize=auto;html=1;exitX=0.5;exitY=0;exitDx=0;exitDy=0;entryX=0.75;entryY=1;entryDx=0;entryDy=0;labelBackgroundColor=default;strokeColor=#457B9D;fontFamily=Helvetica;fontSize=11;fontColor=default;endArrow=block;endFill=0;" parent="1" source="fE-iEd_A84LrjaKV1M42-1" target="bAr8lH01DP6dgl5ePGpr-1" edge="1">
          <mxGeometry relative="1" as="geometry">
            <Array as="points">
              <mxPoint x="700" y="270" />
              <mxPoint x="605" y="270" />
            </Array>
          </mxGeometry>
        </mxCell>
        <mxCell id="fE-iEd_A84LrjaKV1M42-1" value="&lt;p style=&quot;margin: 4px 0px 0px; font-size: 10px;&quot;&gt;&lt;span style=&quot;font-size: 10px;&quot;&gt;Promise&amp;lt;Void&amp;gt;&lt;/span&gt;&lt;/p&gt;" style="verticalAlign=middle;align=center;overflow=fill;fontSize=10;fontFamily=Helvetica;html=1;fillColor=#d5e8d4;strokeColor=#82b366;fontStyle=0" parent="1" vertex="1">
          <mxGeometry x="660" y="280" width="80" height="20" as="geometry" />
        </mxCell>
        <mxCell id="fE-iEd_A84LrjaKV1M42-4" value="&lt;p style=&quot;margin: 4px 0px 0px; font-size: 10px;&quot;&gt;&lt;span style=&quot;font-size: 10px;&quot;&gt;ChannelFuture&lt;/span&gt;&lt;/p&gt;" style="verticalAlign=middle;align=center;overflow=fill;fontSize=10;fontFamily=Helvetica;html=1;fillColor=#d5e8d4;strokeColor=#82b366;fontStyle=0" parent="1" vertex="1">
          <mxGeometry x="760" y="280" width="80" height="20" as="geometry" />
        </mxCell>
        <mxCell id="fE-iEd_A84LrjaKV1M42-6" style="edgeStyle=orthogonalEdgeStyle;shape=connector;rounded=0;orthogonalLoop=1;jettySize=auto;html=1;exitX=0.25;exitY=0;exitDx=0;exitDy=0;entryX=0.5;entryY=1;entryDx=0;entryDy=0;labelBackgroundColor=default;strokeColor=#457B9D;fontFamily=Helvetica;fontSize=11;fontColor=default;endArrow=block;endFill=0;" parent="1" source="fE-iEd_A84LrjaKV1M42-5" target="fE-iEd_A84LrjaKV1M42-1" edge="1">
          <mxGeometry relative="1" as="geometry">
            <Array as="points">
              <mxPoint x="730" y="320" />
              <mxPoint x="700" y="320" />
            </Array>
          </mxGeometry>
        </mxCell>
        <mxCell id="fE-iEd_A84LrjaKV1M42-7" style="edgeStyle=orthogonalEdgeStyle;shape=connector;rounded=0;orthogonalLoop=1;jettySize=auto;html=1;exitX=0.75;exitY=0;exitDx=0;exitDy=0;entryX=0.5;entryY=1;entryDx=0;entryDy=0;labelBackgroundColor=default;strokeColor=#457B9D;fontFamily=Helvetica;fontSize=11;fontColor=default;endArrow=block;endFill=0;" parent="1" source="fE-iEd_A84LrjaKV1M42-5" target="fE-iEd_A84LrjaKV1M42-4" edge="1">
          <mxGeometry relative="1" as="geometry">
            <Array as="points">
              <mxPoint x="770" y="320" />
              <mxPoint x="800" y="320" />
            </Array>
          </mxGeometry>
        </mxCell>
        <mxCell id="fE-iEd_A84LrjaKV1M42-5" value="&lt;p style=&quot;margin: 4px 0px 0px; font-size: 10px;&quot;&gt;&lt;span style=&quot;font-size: 10px;&quot;&gt;ChannelPromise&lt;/span&gt;&lt;/p&gt;" style="verticalAlign=middle;align=center;overflow=fill;fontSize=10;fontFamily=Helvetica;html=1;fillColor=#d5e8d4;strokeColor=#82b366;fontStyle=0" parent="1" vertex="1">
          <mxGeometry x="710" y="330" width="80" height="20" as="geometry" />
        </mxCell>
        <mxCell id="fE-iEd_A84LrjaKV1M42-9" value="&lt;p style=&quot;margin: 4px 0px 0px; font-size: 10px;&quot;&gt;&lt;span style=&quot;font-size: 10px;&quot;&gt;FlushCheckPoint&lt;/span&gt;&lt;/p&gt;" style="verticalAlign=middle;align=center;overflow=fill;fontSize=10;fontFamily=Helvetica;html=1;fillColor=#d5e8d4;strokeColor=#82b366;fontStyle=0" parent="1" vertex="1">
          <mxGeometry x="810" y="330" width="90" height="20" as="geometry" />
        </mxCell>
      </root>
    </mxGraphModel>
  </diagram>
</mxfile>
